<svg xmlns="http://www.w3.org/2000/svg" viewBox="458.915 1256.275 11938.847 4328.0">
<rect x="-1e9" y="-1e9" width="2e9" height="2e9" fill="white"/>
<line x1="3380.9" y1="5534.3" x2="958.9" y2="5534.3" stroke="#00aa00" stroke-width="6" />
<polygon points="2144.9,5534.3 2194.9,5519.3 2194.9,5549.3" fill="#00aa00"/>
<line x1="9752.6" y1="5534.3" x2="3380.9" y2="5534.3" stroke="#00aa00" stroke-width="6" />
<polygon points="6541.7,5534.3 6591.7,5519.3 6591.7,5549.3" fill="#00aa00"/>
<line x1="9752.6" y1="5534.3" x2="11897.8" y2="5534.3" stroke="#00aa00" stroke-width="6" />
<polygon points="10850.2,5534.3 10800.2,5549.3 10800.2,5519.3" fill="#00aa00"/>
<line x1="4649.9" y1="4634.3" x2="1858.9" y2="4634.3" stroke="#00aa00" stroke-width="6" />
<polygon points="3229.4,4634.3 3279.4,4619.3 3279.4,4649.3" fill="#00aa00"/>
<line x1="4649.9" y1="4634.3" x2="5912.3" y2="4634.3" stroke="#00aa00" stroke-width="6" />
<polygon points="5306.1,4634.3 5256.1,4649.3 5256.1,4619.3" fill="#00aa00"/>
<line x1="7280.4" y1="4634.3" x2="5912.3" y2="4634.3" stroke="#00aa00" stroke-width="6" />
<polygon points="6571.3,4634.3 6621.3,4619.3 6621.3,4649.3" fill="#00aa00"/>
<line x1="7380.2" y1="4634.3" x2="7280.4" y2="4634.3" stroke="#00aa00" stroke-width="6" />
<polygon points="7305.3,4634.3 7355.3,4619.3 7355.3,4649.3" fill="#00aa00"/>
<line x1="8483.6" y1="4634.3" x2="7380.2" y2="4634.3" stroke="#00aa00" stroke-width="6" />
<polygon points="7906.9,4634.3 7956.9,4619.3 7956.9,4649.3" fill="#00aa00"/>
<line x1="10997.8" y1="4634.3" x2="8483.6" y2="4634.3" stroke="#00aa00" stroke-width="6" />
<polygon points="9715.7,4634.3 9765.7,4619.3 9765.7,4649.3" fill="#00aa00"/>
<line x1="3518.2" y1="2206.3" x2="1858.9" y2="2206.3" stroke="#00aa00" stroke-width="6" />
<polygon points="2663.6,2206.3 2713.6,2191.3 2713.6,2221.3" fill="#00aa00"/>
<line x1="3518.2" y1="2206.3" x2="5912.3" y2="2206.3" stroke="#00aa00" stroke-width="6" />
<polygon points="4740.3,2206.3 4690.3,2221.3 4690.3,2191.3" fill="#00aa00"/>
<line x1="7280.4" y1="2206.3" x2="5912.3" y2="2206.3" stroke="#00aa00" stroke-width="6" />
<polygon points="6571.3,2206.3 6621.3,2191.3 6621.3,2221.3" fill="#00aa00"/>
<line x1="9932.1" y1="2206.3" x2="7280.4" y2="2206.3" stroke="#00aa00" stroke-width="6" />
<polygon points="8581.2,2206.3 8631.2,2191.3 8631.2,2221.3" fill="#00aa00"/>
<line x1="9932.1" y1="2206.3" x2="10997.8" y2="2206.3" stroke="#00aa00" stroke-width="6" />
<polygon points="10489.9,2206.3 10439.9,2221.3 10439.9,2191.3" fill="#00aa00"/>
<line x1="4787.1" y1="1306.3" x2="958.9" y2="1306.3" stroke="#00aa00" stroke-width="6" />
<polygon points="2848.0,1306.3 2898.0,1291.3 2898.0,1321.3" fill="#00aa00"/>
<line x1="8663.1" y1="1306.3" x2="4787.1" y2="1306.3" stroke="#00aa00" stroke-width="6" />
<polygon points="6700.1,1306.3 6750.1,1291.3 6750.1,1321.3" fill="#00aa00"/>
<line x1="11897.8" y1="1306.3" x2="8663.1" y2="1306.3" stroke="#00aa00" stroke-width="6" />
<polygon points="10255.5,1306.3 10305.5,1291.3 10305.5,1321.3" fill="#00aa00"/>
<line x1="11447.8" y1="2656.3" x2="11447.8" y2="4184.3" stroke="#00aa00" stroke-width="6" />
<polygon points="11447.8,3445.3 11432.8,3395.3 11462.8,3395.3" fill="#00aa00"/>
<line x1="12347.8" y1="5084.3" x2="12347.8" y2="1756.3" stroke="#00aa00" stroke-width="6" />
<polygon points="12347.8,3395.3 12362.8,3445.3 12332.8,3445.3" fill="#00aa00"/>
<line x1="1408.9" y1="2656.3" x2="1408.9" y2="4184.3" stroke="#00aa00" stroke-width="6" />
<polygon points="1408.9,3445.3 1393.9,3395.3 1423.9,3395.3" fill="#00aa00"/>
<line x1="508.9" y1="5084.3" x2="508.9" y2="1756.3" stroke="#00aa00" stroke-width="6" />
<polygon points="508.9,3395.3 523.9,3445.3 493.9,3445.3" fill="#00aa00"/>
<line x1="8982.3" y1="1439.0" x2="9612.9" y2="2073.5" stroke="#00aa00" stroke-width="6" />
<polygon points="9315.2,1774.0 9269.4,1749.1 9290.6,1728.0" fill="#00aa00"/>
<line x1="4468.0" y1="1439.0" x2="3837.4" y2="2073.5" stroke="#00aa00" stroke-width="6" />
<polygon points="4135.1,1774.0 4159.7,1728.0 4180.9,1749.1" fill="#00aa00"/>
<line x1="8802.8" y1="4767.0" x2="9433.4" y2="5401.5" stroke="#00aa00" stroke-width="6" />
<polygon points="9135.7,5102.0 9089.8,5077.1 9111.1,5056.0" fill="#00aa00"/>
<line x1="3700.1" y1="5401.5" x2="4330.7" y2="4767.0" stroke="#00aa00" stroke-width="6" />
<polygon points="4033.0,5066.5 4008.4,5112.6 3987.1,5091.4" fill="#00aa00"/>
<line x1="6830.4" y1="2656.3" x2="6830.4" y2="4184.3" stroke="#00aa00" stroke-width="6" />
<polygon points="6830.4,3445.3 6815.4,3395.3 6845.4,3395.3" fill="#00aa00"/>
<line x1="6362.3" y1="2656.3" x2="6362.3" y2="4184.3" stroke="#00aa00" stroke-width="6" />
<polygon points="6362.3,3445.3 6347.3,3395.3 6377.3,3395.3" fill="#00aa00"/>
<path d="M 10997.8,2206.3 L 11009.0,2206.4 L 11020.2,2206.8 L 11031.4,2207.5 L 11042.6,2208.5 L 11053.7,2209.8 L 11064.8,2211.3 L 11075.9,2213.1 L 11086.9,2215.2 L 11097.9,2217.6 L 11108.8,2220.2 L 11119.6,2223.1 L 11130.4,2226.3 L 11141.1,2229.7 L 11151.7,2233.4 L 11162.2,2237.4 L 11172.6,2241.6 L 11182.8,2246.1 L 11193.0,2250.8 L 11203.1,2255.8 L 11213.0,2261.1 L 11222.8,2266.6 L 11232.4,2272.3 L 11241.9,2278.3 L 11251.3,2284.5 L 11260.4,2290.9 L 11269.5,2297.6 L 11278.3,2304.5 L 11287.0,2311.6 L 11295.5,2318.9 L 11303.8,2326.4 L 11312.0,2334.1 L 11319.9,2342.1 L 11327.6,2350.2 L 11335.2,2358.5 L 11342.5,2367.0 L 11349.6,2375.7 L 11356.5,2384.6 L 11363.1,2393.6 L 11369.6,2402.8 L 11375.8,2412.1 L 11381.7,2421.6 L 11387.5,2431.3 L 11393.0,2441.1 L 11398.2,2451.0 L 11403.2,2461.0 L 11407.9,2471.2 L 11412.4,2481.5 L 11416.7,2491.9 L 11420.6,2502.4 L 11424.3,2513.0 L 11427.8,2523.6 L 11430.9,2534.4 L 11433.8,2545.2 L 11436.5,2556.1 L 11438.8,2567.1 L 11440.9,2578.1 L 11442.7,2589.2 L 11444.3,2600.3 L 11445.5,2611.5 L 11446.5,2622.6 L 11447.2,2633.8 L 11447.6,2645.1 L 11447.8,2656.3" fill="none" stroke="#00aa00" stroke-width="6"/>
<polygon points="11337.4,2360.0 11291.7,2334.6 11313.2,2313.7" fill="#00aa00"/>
<path d="M 11447.8,4184.3 L 11447.6,4195.5 L 11447.2,4206.7 L 11446.5,4217.9 L 11445.5,4229.1 L 11444.3,4240.2 L 11442.7,4251.3 L 11440.9,4262.4 L 11438.8,4273.4 L 11436.5,4284.4 L 11433.8,4295.3 L 11430.9,4306.2 L 11427.8,4316.9 L 11424.3,4327.6 L 11420.6,4338.2 L 11416.7,4348.7 L 11412.4,4359.1 L 11407.9,4369.4 L 11403.2,4379.5 L 11398.2,4389.6 L 11393.0,4399.5 L 11387.5,4409.3 L 11381.7,4418.9 L 11375.8,4428.4 L 11369.6,4437.8 L 11363.1,4447.0 L 11356.5,4456.0 L 11349.6,4464.8 L 11342.5,4473.5 L 11335.2,4482.0 L 11327.6,4490.4 L 11319.9,4498.5 L 11312.0,4506.4 L 11303.8,4514.1 L 11295.5,4521.7 L 11287.0,4529.0 L 11278.3,4536.1 L 11269.5,4543.0 L 11260.4,4549.6 L 11251.3,4556.1 L 11241.9,4562.3 L 11232.4,4568.3 L 11222.8,4574.0 L 11213.0,4579.5 L 11203.1,4584.7 L 11193.0,4589.7 L 11182.8,4594.5 L 11172.6,4598.9 L 11162.2,4603.2 L 11151.7,4607.1 L 11141.1,4610.8 L 11130.4,4614.3 L 11119.6,4617.5 L 11108.8,4620.4 L 11097.9,4623.0 L 11086.9,4625.4 L 11075.9,4627.4 L 11064.8,4629.2 L 11053.7,4630.8 L 11042.6,4632.0 L 11031.4,4633.0 L 11020.2,4633.7 L 11009.0,4634.1 L 10997.8,4634.3" fill="none" stroke="#00aa00" stroke-width="6"/>
<polygon points="11294.1,4523.9 11319.4,4478.2 11340.3,4499.7" fill="#00aa00"/>
<path d="M 11897.8,5534.3 L 11909.0,5534.1 L 11920.2,5533.7 L 11931.4,5533.0 L 11942.6,5532.0 L 11953.7,5530.8 L 11964.8,5529.2 L 11975.9,5527.4 L 11986.9,5525.4 L 11997.9,5523.0 L 12008.8,5520.4 L 12019.6,5517.5 L 12030.4,5514.3 L 12041.1,5510.8 L 12051.7,5507.1 L 12062.2,5503.2 L 12072.6,5498.9 L 12082.8,5494.5 L 12093.0,5489.7 L 12103.1,5484.7 L 12113.0,5479.5 L 12122.8,5474.0 L 12132.4,5468.3 L 12141.9,5462.3 L 12151.3,5456.1 L 12160.4,5449.6 L 12169.5,5443.0 L 12178.3,5436.1 L 12187.0,5429.0 L 12195.5,5421.7 L 12203.8,5414.1 L 12212.0,5406.4 L 12219.9,5398.5 L 12227.6,5390.4 L 12235.2,5382.0 L 12242.5,5373.5 L 12249.6,5364.8 L 12256.5,5356.0 L 12263.1,5347.0 L 12269.6,5337.8 L 12275.8,5328.4 L 12281.7,5318.9 L 12287.5,5309.3 L 12293.0,5299.5 L 12298.2,5289.6 L 12303.2,5279.5 L 12307.9,5269.4 L 12312.4,5259.1 L 12316.7,5248.7 L 12320.6,5238.2 L 12324.3,5227.6 L 12327.8,5216.9 L 12330.9,5206.2 L 12333.8,5195.3 L 12336.5,5184.4 L 12338.8,5173.4 L 12340.9,5162.4 L 12342.7,5151.3 L 12344.3,5140.2 L 12345.5,5129.1 L 12346.5,5117.9 L 12347.2,5106.7 L 12347.6,5095.5 L 12347.8,5084.3" fill="none" stroke="#00aa00" stroke-width="6"/>
<polygon points="12237.4,5380.6 12213.2,5426.9 12191.7,5405.9" fill="#00aa00"/>
<path d="M 12347.8,1756.3 L 12347.6,1745.1 L 12347.2,1733.8 L 12346.5,1722.6 L 12345.5,1711.5 L 12344.3,1700.3 L 12342.7,1689.2 L 12340.9,1678.1 L 12338.8,1667.1 L 12336.5,1656.1 L 12333.8,1645.2 L 12330.9,1634.4 L 12327.8,1623.6 L 12324.3,1613.0 L 12320.6,1602.4 L 12316.7,1591.9 L 12312.4,1581.5 L 12307.9,1571.2 L 12303.2,1561.0 L 12298.2,1551.0 L 12293.0,1541.1 L 12287.5,1531.3 L 12281.7,1521.6 L 12275.8,1512.1 L 12269.6,1502.8 L 12263.1,1493.6 L 12256.5,1484.6 L 12249.6,1475.7 L 12242.5,1467.0 L 12235.2,1458.5 L 12227.6,1450.2 L 12219.9,1442.1 L 12212.0,1434.1 L 12203.8,1426.4 L 12195.5,1418.9 L 12187.0,1411.6 L 12178.3,1404.5 L 12169.5,1397.6 L 12160.4,1390.9 L 12151.3,1384.5 L 12141.9,1378.3 L 12132.4,1372.3 L 12122.8,1366.6 L 12113.0,1361.1 L 12103.1,1355.8 L 12093.0,1350.8 L 12082.8,1346.1 L 12072.6,1341.6 L 12062.2,1337.4 L 12051.7,1333.4 L 12041.1,1329.7 L 12030.4,1326.3 L 12019.6,1323.1 L 12008.8,1320.2 L 11997.9,1317.6 L 11986.9,1315.2 L 11975.9,1313.1 L 11964.8,1311.3 L 11953.7,1309.8 L 11942.6,1308.5 L 11931.4,1307.5 L 11920.2,1306.8 L 11909.0,1306.4 L 11897.8,1306.3" fill="none" stroke="#00aa00" stroke-width="6"/>
<polygon points="12194.1,1416.7 12240.3,1440.9 12219.4,1462.3" fill="#00aa00"/>
<path d="M 1858.9,4634.3 L 1847.7,4634.1 L 1836.5,4633.7 L 1825.3,4633.0 L 1814.1,4632.0 L 1803.0,4630.8 L 1791.8,4629.2 L 1780.8,4627.4 L 1769.7,4625.4 L 1758.8,4623.0 L 1747.9,4620.4 L 1737.0,4617.5 L 1726.3,4614.3 L 1715.6,4610.8 L 1705.0,4607.1 L 1694.5,4603.2 L 1684.1,4598.9 L 1673.8,4594.5 L 1663.7,4589.7 L 1653.6,4584.7 L 1643.7,4579.5 L 1633.9,4574.0 L 1624.3,4568.3 L 1614.8,4562.3 L 1605.4,4556.1 L 1596.2,4549.6 L 1587.2,4543.0 L 1578.3,4536.1 L 1569.7,4529.0 L 1561.2,4521.7 L 1552.8,4514.1 L 1544.7,4506.4 L 1536.8,4498.5 L 1529.0,4490.4 L 1521.5,4482.0 L 1514.2,4473.5 L 1507.1,4464.8 L 1500.2,4456.0 L 1493.5,4447.0 L 1487.1,4437.8 L 1480.9,4428.4 L 1474.9,4418.9 L 1469.2,4409.3 L 1463.7,4399.5 L 1458.5,4389.6 L 1453.5,4379.5 L 1448.7,4369.4 L 1444.3,4359.1 L 1440.0,4348.7 L 1436.1,4338.2 L 1432.3,4327.6 L 1428.9,4316.9 L 1425.7,4306.2 L 1422.8,4295.3 L 1420.2,4284.4 L 1417.8,4273.4 L 1415.8,4262.4 L 1413.9,4251.3 L 1412.4,4240.2 L 1411.2,4229.1 L 1410.2,4217.9 L 1409.5,4206.7 L 1409.1,4195.5 L 1408.9,4184.3" fill="none" stroke="#00aa00" stroke-width="6"/>
<polygon points="1519.3,4480.6 1565.0,4505.9 1543.5,4526.9" fill="#00aa00"/>
<path d="M 1858.9,2206.3 L 1847.7,2206.4 L 1836.5,2206.8 L 1825.3,2207.5 L 1814.1,2208.5 L 1803.0,2209.8 L 1791.8,2211.3 L 1780.8,2213.1 L 1769.7,2215.2 L 1758.8,2217.6 L 1747.9,2220.2 L 1737.0,2223.1 L 1726.3,2226.3 L 1715.6,2229.7 L 1705.0,2233.4 L 1694.5,2237.4 L 1684.1,2241.6 L 1673.8,2246.1 L 1663.7,2250.8 L 1653.6,2255.8 L 1643.7,2261.1 L 1633.9,2266.6 L 1624.3,2272.3 L 1614.8,2278.3 L 1605.4,2284.5 L 1596.2,2290.9 L 1587.2,2297.6 L 1578.3,2304.5 L 1569.7,2311.6 L 1561.2,2318.9 L 1552.8,2326.4 L 1544.7,2334.1 L 1536.8,2342.1 L 1529.0,2350.2 L 1521.5,2358.5 L 1514.2,2367.0 L 1507.1,2375.7 L 1500.2,2384.6 L 1493.5,2393.6 L 1487.1,2402.8 L 1480.9,2412.1 L 1474.9,2421.6 L 1469.2,2431.3 L 1463.7,2441.1 L 1458.5,2451.0 L 1453.5,2461.0 L 1448.7,2471.2 L 1444.3,2481.5 L 1440.0,2491.9 L 1436.1,2502.4 L 1432.3,2513.0 L 1428.9,2523.6 L 1425.7,2534.4 L 1422.8,2545.2 L 1420.2,2556.1 L 1417.8,2567.1 L 1415.8,2578.1 L 1413.9,2589.2 L 1412.4,2600.3 L 1411.2,2611.5 L 1410.2,2622.6 L 1409.5,2633.8 L 1409.1,2645.1 L 1408.9,2656.3" fill="none" stroke="#00aa00" stroke-width="6"/>
<polygon points="1519.3,2360.0 1543.5,2313.7 1565.0,2334.6" fill="#00aa00"/>
<path d="M 958.9,1306.3 L 947.7,1306.4 L 936.5,1306.8 L 925.3,1307.5 L 914.1,1308.5 L 903.0,1309.8 L 891.8,1311.3 L 880.8,1313.1 L 869.7,1315.2 L 858.8,1317.6 L 847.9,1320.2 L 837.0,1323.1 L 826.3,1326.3 L 815.6,1329.7 L 805.0,1333.4 L 794.5,1337.4 L 784.1,1341.6 L 773.8,1346.1 L 763.7,1350.8 L 753.6,1355.8 L 743.7,1361.1 L 733.9,1366.6 L 724.3,1372.3 L 714.8,1378.3 L 705.4,1384.5 L 696.2,1390.9 L 687.2,1397.6 L 678.3,1404.5 L 669.7,1411.6 L 661.2,1418.9 L 652.8,1426.4 L 644.7,1434.1 L 636.8,1442.1 L 629.0,1450.2 L 621.5,1458.5 L 614.2,1467.0 L 607.1,1475.7 L 600.2,1484.6 L 593.5,1493.6 L 587.1,1502.8 L 580.9,1512.1 L 574.9,1521.6 L 569.2,1531.3 L 563.7,1541.1 L 558.5,1551.0 L 553.5,1561.0 L 548.7,1571.2 L 544.3,1581.5 L 540.0,1591.9 L 536.1,1602.4 L 532.3,1613.0 L 528.9,1623.6 L 525.7,1634.4 L 522.8,1645.2 L 520.2,1656.1 L 517.8,1667.1 L 515.8,1678.1 L 513.9,1689.2 L 512.4,1700.3 L 511.2,1711.5 L 510.2,1722.6 L 509.5,1733.8 L 509.1,1745.1 L 508.9,1756.3" fill="none" stroke="#00aa00" stroke-width="6"/>
<polygon points="619.3,1460.0 643.5,1413.7 665.0,1434.6" fill="#00aa00"/>
<path d="M 958.9,5534.3 L 947.7,5534.1 L 936.5,5533.7 L 925.3,5533.0 L 914.1,5532.0 L 903.0,5530.8 L 891.8,5529.2 L 880.8,5527.4 L 869.7,5525.4 L 858.8,5523.0 L 847.9,5520.4 L 837.0,5517.5 L 826.3,5514.3 L 815.6,5510.8 L 805.0,5507.1 L 794.5,5503.2 L 784.1,5498.9 L 773.8,5494.5 L 763.7,5489.7 L 753.6,5484.7 L 743.7,5479.5 L 733.9,5474.0 L 724.3,5468.3 L 714.8,5462.3 L 705.4,5456.1 L 696.2,5449.6 L 687.2,5443.0 L 678.3,5436.1 L 669.7,5429.0 L 661.2,5421.7 L 652.8,5414.1 L 644.7,5406.4 L 636.8,5398.5 L 629.0,5390.4 L 621.5,5382.0 L 614.2,5373.5 L 607.1,5364.8 L 600.2,5356.0 L 593.5,5347.0 L 587.1,5337.8 L 580.9,5328.4 L 574.9,5318.9 L 569.2,5309.3 L 563.7,5299.5 L 558.5,5289.6 L 553.5,5279.5 L 548.7,5269.4 L 544.3,5259.1 L 540.0,5248.7 L 536.1,5238.2 L 532.3,5227.6 L 528.9,5216.9 L 525.7,5206.2 L 522.8,5195.3 L 520.2,5184.4 L 517.8,5173.4 L 515.8,5162.4 L 513.9,5151.3 L 512.4,5140.2 L 511.2,5129.1 L 510.2,5117.9 L 509.5,5106.7 L 509.1,5095.5 L 508.9,5084.3" fill="none" stroke="#00aa00" stroke-width="6"/>
<polygon points="619.3,5380.6 665.0,5405.9 643.5,5426.9" fill="#00aa00"/>
<path d="M 9612.9,2073.5 L 9616.9,2077.5 L 9621.0,2081.4 L 9625.1,2085.3 L 9629.2,2089.1 L 9633.4,2092.8 L 9637.6,2096.6 L 9641.9,2100.2 L 9646.2,2103.8 L 9650.6,2107.4 L 9655.0,2110.9 L 9659.5,2114.3 L 9664.0,2117.7 L 9668.5,2121.0 L 9673.1,2124.3 L 9677.7,2127.5 L 9682.4,2130.6 L 9687.1,2133.7 L 9691.8,2136.8 L 9696.6,2139.8 L 9701.4,2142.7 L 9706.3,2145.5 L 9711.2,2148.3 L 9716.1,2151.1 L 9721.1,2153.7 L 9726.1,2156.3 L 9731.1,2158.9 L 9736.1,2161.4 L 9741.2,2163.8 L 9746.3,2166.1 L 9751.5,2168.4 L 9756.6,2170.7 L 9761.8,2172.8 L 9767.1,2174.9 L 9772.3,2177.0 L 9777.6,2178.9 L 9782.9,2180.8 L 9788.2,2182.7 L 9793.6,2184.4 L 9798.9,2186.1 L 9804.3,2187.8 L 9809.7,2189.3 L 9815.2,2190.8 L 9820.6,2192.3 L 9826.1,2193.6 L 9831.6,2194.9 L 9837.1,2196.1 L 9842.6,2197.3 L 9848.1,2198.4 L 9853.6,2199.4 L 9859.2,2200.3 L 9864.8,2201.2 L 9870.3,2202.0 L 9875.9,2202.8 L 9881.5,2203.4 L 9887.1,2204.0 L 9892.7,2204.5 L 9898.3,2205.0 L 9903.9,2205.4 L 9909.6,2205.7 L 9915.2,2206.0 L 9920.8,2206.1 L 9926.5,2206.2 L 9932.1,2206.3" fill="none" stroke="#00aa00" stroke-width="6"/>
<polygon points="9785.0,2182.3 9733.0,2177.3 9744.4,2149.5" fill="#00aa00"/>
<path d="M 8663.2,1306.3 L 8668.8,1306.3 L 8674.4,1306.4 L 8680.0,1306.6 L 8685.7,1306.8 L 8691.3,1307.2 L 8696.9,1307.5 L 8702.5,1308.0 L 8708.1,1308.5 L 8713.7,1309.1 L 8719.3,1309.8 L 8724.9,1310.5 L 8730.5,1311.3 L 8736.0,1312.2 L 8741.6,1313.2 L 8747.1,1314.2 L 8752.7,1315.3 L 8758.2,1316.4 L 8763.7,1317.6 L 8769.1,1318.9 L 8774.6,1320.3 L 8780.1,1321.7 L 8785.5,1323.2 L 8790.9,1324.8 L 8796.3,1326.4 L 8801.7,1328.1 L 8807.0,1329.9 L 8812.3,1331.7 L 8817.6,1333.6 L 8822.9,1335.6 L 8828.2,1337.6 L 8833.4,1339.7 L 8838.6,1341.9 L 8843.8,1344.1 L 8848.9,1346.4 L 8854.0,1348.8 L 8859.1,1351.2 L 8864.2,1353.7 L 8869.2,1356.2 L 8874.2,1358.8 L 8879.1,1361.5 L 8884.1,1364.2 L 8888.9,1367.0 L 8893.8,1369.9 L 8898.6,1372.8 L 8903.4,1375.8 L 8908.1,1378.8 L 8912.8,1381.9 L 8917.5,1385.1 L 8922.1,1388.3 L 8926.7,1391.5 L 8931.3,1394.9 L 8935.8,1398.2 L 8940.2,1401.7 L 8944.6,1405.2 L 8949.0,1408.7 L 8953.3,1412.3 L 8957.6,1416.0 L 8961.9,1419.7 L 8966.0,1423.5 L 8970.2,1427.3 L 8974.3,1431.2 L 8978.3,1435.1 L 8982.3,1439.0" fill="none" stroke="#00aa00" stroke-width="6"/>
<polygon points="8861.6,1351.6 8809.7,1345.9 8821.4,1318.3" fill="#00aa00"/>
<path d="M 3837.4,2073.5 L 3833.4,2077.5 L 3829.3,2081.4 L 3825.2,2085.3 L 3821.1,2089.1 L 3816.9,2092.8 L 3812.7,2096.6 L 3808.4,2100.2 L 3804.1,2103.8 L 3799.7,2107.4 L 3795.3,2110.9 L 3790.8,2114.3 L 3786.3,2117.7 L 3781.8,2121.0 L 3777.2,2124.3 L 3772.6,2127.5 L 3767.9,2130.6 L 3763.2,2133.7 L 3758.5,2136.8 L 3753.7,2139.8 L 3748.9,2142.7 L 3744.0,2145.5 L 3739.1,2148.3 L 3734.2,2151.1 L 3729.2,2153.7 L 3724.2,2156.3 L 3719.2,2158.9 L 3714.2,2161.4 L 3709.1,2163.8 L 3704.0,2166.1 L 3698.8,2168.4 L 3693.6,2170.7 L 3688.4,2172.8 L 3683.2,2174.9 L 3678.0,2177.0 L 3672.7,2178.9 L 3667.4,2180.8 L 3662.1,2182.7 L 3656.7,2184.4 L 3651.3,2186.1 L 3646.0,2187.8 L 3640.5,2189.3 L 3635.1,2190.8 L 3629.7,2192.3 L 3624.2,2193.6 L 3618.7,2194.9 L 3613.2,2196.1 L 3607.7,2197.3 L 3602.2,2198.4 L 3596.7,2199.4 L 3591.1,2200.3 L 3585.5,2201.2 L 3580.0,2202.0 L 3574.4,2202.8 L 3568.8,2203.4 L 3563.2,2204.0 L 3557.6,2204.5 L 3552.0,2205.0 L 3546.4,2205.4 L 3540.7,2205.7 L 3535.1,2206.0 L 3529.5,2206.1 L 3523.8,2206.2 L 3518.2,2206.3" fill="none" stroke="#00aa00" stroke-width="6"/>
<polygon points="3665.3,2182.3 3705.9,2149.5 3717.3,2177.3" fill="#00aa00"/>
<path d="M 4787.1,1306.3 L 4781.5,1306.3 L 4775.9,1306.4 L 4770.3,1306.6 L 4764.6,1306.8 L 4759.0,1307.2 L 4753.4,1307.5 L 4747.8,1308.0 L 4742.2,1308.5 L 4736.6,1309.1 L 4731.0,1309.8 L 4725.4,1310.5 L 4719.8,1311.3 L 4714.3,1312.2 L 4708.7,1313.2 L 4703.2,1314.2 L 4697.6,1315.3 L 4692.1,1316.4 L 4686.6,1317.6 L 4681.1,1318.9 L 4675.7,1320.3 L 4670.2,1321.7 L 4664.8,1323.2 L 4659.4,1324.8 L 4654.0,1326.4 L 4648.6,1328.1 L 4643.3,1329.9 L 4638.0,1331.7 L 4632.7,1333.6 L 4627.4,1335.6 L 4622.1,1337.6 L 4616.9,1339.7 L 4611.7,1341.9 L 4606.5,1344.1 L 4601.4,1346.4 L 4596.3,1348.8 L 4591.2,1351.2 L 4586.1,1353.7 L 4581.1,1356.2 L 4576.1,1358.8 L 4571.2,1361.5 L 4566.2,1364.2 L 4561.4,1367.0 L 4556.5,1369.9 L 4551.7,1372.8 L 4546.9,1375.8 L 4542.2,1378.8 L 4537.5,1381.9 L 4532.8,1385.1 L 4528.2,1388.3 L 4523.6,1391.5 L 4519.0,1394.9 L 4514.5,1398.2 L 4510.1,1401.7 L 4505.7,1405.2 L 4501.3,1408.7 L 4497.0,1412.3 L 4492.7,1416.0 L 4488.4,1419.7 L 4484.3,1423.5 L 4480.1,1427.3 L 4476.0,1431.2 L 4472.0,1435.1 L 4468.0,1439.0" fill="none" stroke="#00aa00" stroke-width="6"/>
<polygon points="4588.7,1351.6 4628.9,1318.3 4640.6,1345.9" fill="#00aa00"/>
<path d="M 9433.4,5401.5 L 9437.4,5405.5 L 9441.4,5409.4 L 9445.5,5413.3 L 9449.7,5417.1 L 9453.9,5420.8 L 9458.1,5424.6 L 9462.4,5428.2 L 9466.7,5431.8 L 9471.1,5435.4 L 9475.5,5438.9 L 9479.9,5442.3 L 9484.4,5445.7 L 9489.0,5449.0 L 9493.6,5452.3 L 9498.2,5455.5 L 9502.9,5458.6 L 9507.6,5461.7 L 9512.3,5464.8 L 9517.1,5467.8 L 9521.9,5470.7 L 9526.8,5473.5 L 9531.7,5476.3 L 9536.6,5479.1 L 9541.5,5481.7 L 9546.5,5484.3 L 9551.6,5486.9 L 9556.6,5489.4 L 9561.7,5491.8 L 9566.8,5494.1 L 9572.0,5496.4 L 9577.1,5498.7 L 9582.3,5500.8 L 9587.5,5502.9 L 9592.8,5505.0 L 9598.1,5506.9 L 9603.4,5508.8 L 9608.7,5510.7 L 9614.1,5512.4 L 9619.4,5514.1 L 9624.8,5515.8 L 9630.2,5517.3 L 9635.7,5518.8 L 9641.1,5520.3 L 9646.6,5521.6 L 9652.0,5522.9 L 9657.5,5524.1 L 9663.1,5525.3 L 9668.6,5526.4 L 9674.1,5527.4 L 9679.7,5528.3 L 9685.2,5529.2 L 9690.8,5530.0 L 9696.4,5530.8 L 9702.0,5531.4 L 9707.6,5532.0 L 9713.2,5532.5 L 9718.8,5533.0 L 9724.4,5533.4 L 9730.0,5533.7 L 9735.7,5534.0 L 9741.3,5534.1 L 9746.9,5534.2 L 9752.6,5534.3" fill="none" stroke="#00aa00" stroke-width="6"/>
<polygon points="9605.5,5510.3 9553.5,5505.3 9564.9,5477.5" fill="#00aa00"/>
<path d="M 8483.6,4634.3 L 8489.3,4634.3 L 8494.9,4634.4 L 8500.5,4634.6 L 8506.1,4634.8 L 8511.8,4635.2 L 8517.4,4635.5 L 8523.0,4636.0 L 8528.6,4636.5 L 8534.2,4637.1 L 8539.8,4637.8 L 8545.4,4638.5 L 8551.0,4639.3 L 8556.5,4640.2 L 8562.1,4641.2 L 8567.6,4642.2 L 8573.1,4643.3 L 8578.6,4644.4 L 8584.1,4645.6 L 8589.6,4646.9 L 8595.1,4648.3 L 8600.5,4649.7 L 8606.0,4651.2 L 8611.4,4652.8 L 8616.8,4654.4 L 8622.1,4656.1 L 8627.5,4657.9 L 8632.8,4659.7 L 8638.1,4661.6 L 8643.4,4663.6 L 8648.6,4665.6 L 8653.9,4667.7 L 8659.1,4669.9 L 8664.2,4672.1 L 8669.4,4674.4 L 8674.5,4676.8 L 8679.6,4679.2 L 8684.6,4681.7 L 8689.7,4684.2 L 8694.6,4686.8 L 8699.6,4689.5 L 8704.5,4692.2 L 8709.4,4695.0 L 8714.3,4697.9 L 8719.1,4700.8 L 8723.9,4703.8 L 8728.6,4706.8 L 8733.3,4709.9 L 8738.0,4713.1 L 8742.6,4716.3 L 8747.2,4719.5 L 8751.7,4722.9 L 8756.2,4726.2 L 8760.7,4729.7 L 8765.1,4733.2 L 8769.5,4736.7 L 8773.8,4740.3 L 8778.1,4744.0 L 8782.3,4747.7 L 8786.5,4751.5 L 8790.7,4755.3 L 8794.8,4759.2 L 8798.8,4763.1 L 8802.8,4767.0" fill="none" stroke="#00aa00" stroke-width="6"/>
<polygon points="8682.1,4679.6 8630.2,4673.9 8641.9,4646.3" fill="#00aa00"/>
<path d="M 3380.9,5534.3 L 3386.6,5534.2 L 3392.2,5534.1 L 3397.8,5534.0 L 3403.4,5533.7 L 3409.1,5533.4 L 3414.7,5533.0 L 3420.3,5532.5 L 3425.9,5532.0 L 3431.5,5531.4 L 3437.1,5530.8 L 3442.7,5530.0 L 3448.3,5529.2 L 3453.8,5528.3 L 3459.4,5527.4 L 3464.9,5526.4 L 3470.4,5525.3 L 3475.9,5524.1 L 3481.4,5522.9 L 3486.9,5521.6 L 3492.4,5520.3 L 3497.8,5518.8 L 3503.3,5517.3 L 3508.7,5515.8 L 3514.1,5514.1 L 3519.4,5512.4 L 3524.8,5510.7 L 3530.1,5508.8 L 3535.4,5506.9 L 3540.7,5505.0 L 3545.9,5502.9 L 3551.2,5500.8 L 3556.4,5498.7 L 3561.5,5496.4 L 3566.7,5494.1 L 3571.8,5491.8 L 3576.9,5489.4 L 3581.9,5486.9 L 3587.0,5484.3 L 3591.9,5481.7 L 3596.9,5479.1 L 3601.8,5476.3 L 3606.7,5473.5 L 3611.6,5470.7 L 3616.4,5467.8 L 3621.2,5464.8 L 3625.9,5461.7 L 3630.6,5458.6 L 3635.3,5455.5 L 3639.9,5452.3 L 3644.5,5449.0 L 3649.0,5445.7 L 3653.5,5442.3 L 3658.0,5438.9 L 3662.4,5435.4 L 3666.8,5431.8 L 3671.1,5428.2 L 3675.4,5424.6 L 3679.6,5420.8 L 3683.8,5417.1 L 3688.0,5413.3 L 3692.1,5409.4 L 3696.1,5405.5 L 3700.1,5401.5" fill="none" stroke="#00aa00" stroke-width="6"/>
<polygon points="3579.4,5488.9 3539.2,5522.2 3527.5,5494.6" fill="#00aa00"/>
<path d="M 4330.7,4767.0 L 4334.7,4763.1 L 4338.7,4759.2 L 4342.8,4755.3 L 4347.0,4751.5 L 4351.2,4747.7 L 4355.4,4744.0 L 4359.7,4740.3 L 4364.0,4736.7 L 4368.4,4733.2 L 4372.8,4729.7 L 4377.3,4726.2 L 4381.8,4722.9 L 4386.3,4719.5 L 4390.9,4716.3 L 4395.5,4713.1 L 4400.2,4709.9 L 4404.9,4706.8 L 4409.6,4703.8 L 4414.4,4700.8 L 4419.2,4697.9 L 4424.1,4695.0 L 4429.0,4692.2 L 4433.9,4689.5 L 4438.8,4686.8 L 4443.8,4684.2 L 4448.9,4681.7 L 4453.9,4679.2 L 4459.0,4676.8 L 4464.1,4674.4 L 4469.3,4672.1 L 4474.4,4669.9 L 4479.6,4667.7 L 4484.9,4665.6 L 4490.1,4663.6 L 4495.4,4661.6 L 4500.7,4659.7 L 4506.0,4657.9 L 4511.4,4656.1 L 4516.7,4654.4 L 4522.1,4652.8 L 4527.5,4651.2 L 4533.0,4649.7 L 4538.4,4648.3 L 4543.9,4646.9 L 4549.3,4645.6 L 4554.8,4644.4 L 4560.4,4643.3 L 4565.9,4642.2 L 4571.4,4641.2 L 4577.0,4640.2 L 4582.5,4639.3 L 4588.1,4638.5 L 4593.7,4637.8 L 4599.3,4637.1 L 4604.9,4636.5 L 4610.5,4636.0 L 4616.1,4635.5 L 4621.7,4635.2 L 4627.3,4634.8 L 4633.0,4634.6 L 4638.6,4634.4 L 4644.2,4634.3 L 4649.9,4634.3" fill="none" stroke="#00aa00" stroke-width="6"/>
<polygon points="4502.8,4658.3 4462.2,4691.1 4450.8,4663.3" fill="#00aa00"/>
<path d="M 7280.4,4634.3 L 7269.1,4634.1 L 7257.9,4633.7 L 7246.7,4633.0 L 7235.6,4632.0 L 7224.4,4630.8 L 7213.3,4629.2 L 7202.2,4627.4 L 7191.2,4625.4 L 7180.2,4623.0 L 7169.3,4620.4 L 7158.5,4617.5 L 7147.7,4614.3 L 7137.0,4610.8 L 7126.5,4607.1 L 7116.0,4603.2 L 7105.6,4598.9 L 7095.3,4594.5 L 7085.1,4589.7 L 7075.1,4584.7 L 7065.2,4579.5 L 7055.4,4574.0 L 7045.7,4568.3 L 7036.2,4562.3 L 7026.9,4556.1 L 7017.7,4549.6 L 7008.7,4543.0 L 6999.8,4536.1 L 6991.1,4529.0 L 6982.6,4521.7 L 6974.3,4514.1 L 6966.2,4506.4 L 6958.2,4498.5 L 6950.5,4490.4 L 6943.0,4482.0 L 6935.6,4473.5 L 6928.5,4464.8 L 6921.7,4456.0 L 6915.0,4447.0 L 6908.6,4437.8 L 6902.4,4428.4 L 6896.4,4418.9 L 6890.7,4409.3 L 6885.2,4399.5 L 6879.9,4389.6 L 6874.9,4379.5 L 6870.2,4369.4 L 6865.7,4359.1 L 6861.5,4348.7 L 6857.5,4338.2 L 6853.8,4327.6 L 6850.4,4316.9 L 6847.2,4306.2 L 6844.3,4295.3 L 6841.6,4284.4 L 6839.3,4273.4 L 6837.2,4262.4 L 6835.4,4251.3 L 6833.9,4240.2 L 6832.6,4229.1 L 6831.6,4217.9 L 6830.9,4206.7 L 6830.5,4195.5 L 6830.4,4184.3" fill="none" stroke="#00aa00" stroke-width="6"/>
<polygon points="6940.8,4480.6 6986.4,4505.9 6964.9,4526.9" fill="#00aa00"/>
<path d="M 7280.4,2206.3 L 7269.1,2206.4 L 7257.9,2206.8 L 7246.7,2207.5 L 7235.6,2208.5 L 7224.4,2209.8 L 7213.3,2211.3 L 7202.2,2213.1 L 7191.2,2215.2 L 7180.2,2217.6 L 7169.3,2220.2 L 7158.5,2223.1 L 7147.7,2226.3 L 7137.0,2229.7 L 7126.5,2233.4 L 7116.0,2237.4 L 7105.6,2241.6 L 7095.3,2246.1 L 7085.1,2250.8 L 7075.1,2255.8 L 7065.2,2261.1 L 7055.4,2266.6 L 7045.7,2272.3 L 7036.2,2278.3 L 7026.9,2284.5 L 7017.7,2290.9 L 7008.7,2297.6 L 6999.8,2304.5 L 6991.1,2311.6 L 6982.6,2318.9 L 6974.3,2326.4 L 6966.2,2334.1 L 6958.2,2342.1 L 6950.5,2350.2 L 6943.0,2358.5 L 6935.6,2367.0 L 6928.5,2375.7 L 6921.7,2384.6 L 6915.0,2393.6 L 6908.6,2402.8 L 6902.4,2412.1 L 6896.4,2421.6 L 6890.7,2431.3 L 6885.2,2441.1 L 6879.9,2451.0 L 6874.9,2461.0 L 6870.2,2471.2 L 6865.7,2481.5 L 6861.5,2491.9 L 6857.5,2502.4 L 6853.8,2513.0 L 6850.4,2523.6 L 6847.2,2534.4 L 6844.3,2545.2 L 6841.6,2556.1 L 6839.3,2567.1 L 6837.2,2578.1 L 6835.4,2589.2 L 6833.9,2600.3 L 6832.6,2611.5 L 6831.6,2622.6 L 6830.9,2633.8 L 6830.5,2645.1 L 6830.4,2656.3" fill="none" stroke="#00aa00" stroke-width="6"/>
<polygon points="6940.8,2360.0 6964.9,2313.7 6986.4,2334.6" fill="#00aa00"/>
<path d="M 5912.3,4634.3 L 5923.5,4634.1 L 5934.8,4633.7 L 5946.0,4633.0 L 5957.1,4632.0 L 5968.3,4630.8 L 5979.4,4629.2 L 5990.5,4627.4 L 6001.5,4625.4 L 6012.5,4623.0 L 6023.4,4620.4 L 6034.2,4617.5 L 6045.0,4614.3 L 6055.6,4610.8 L 6066.2,4607.1 L 6076.7,4603.2 L 6087.1,4598.9 L 6097.4,4594.5 L 6107.6,4589.7 L 6117.6,4584.7 L 6127.5,4579.5 L 6137.3,4574.0 L 6147.0,4568.3 L 6156.5,4562.3 L 6165.8,4556.1 L 6175.0,4549.6 L 6184.0,4543.0 L 6192.9,4536.1 L 6201.6,4529.0 L 6210.1,4521.7 L 6218.4,4514.1 L 6226.5,4506.4 L 6234.5,4498.5 L 6242.2,4490.4 L 6249.7,4482.0 L 6257.0,4473.5 L 6264.2,4464.8 L 6271.0,4456.0 L 6277.7,4447.0 L 6284.1,4437.8 L 6290.3,4428.4 L 6296.3,4418.9 L 6302.0,4409.3 L 6307.5,4399.5 L 6312.8,4389.6 L 6317.8,4379.5 L 6322.5,4369.4 L 6327.0,4359.1 L 6331.2,4348.7 L 6335.2,4338.2 L 6338.9,4327.6 L 6342.3,4316.9 L 6345.5,4306.2 L 6348.4,4295.3 L 6351.0,4284.4 L 6353.4,4273.4 L 6355.5,4262.4 L 6357.3,4251.3 L 6358.8,4240.2 L 6360.1,4229.1 L 6361.1,4217.9 L 6361.8,4206.7 L 6362.2,4195.5 L 6362.3,4184.3" fill="none" stroke="#00aa00" stroke-width="6"/>
<polygon points="6251.9,4480.6 6227.7,4526.9 6206.3,4505.9" fill="#00aa00"/>
<path d="M 5912.3,2206.3 L 5923.5,2206.4 L 5934.8,2206.8 L 5946.0,2207.5 L 5957.1,2208.5 L 5968.3,2209.8 L 5979.4,2211.3 L 5990.5,2213.1 L 6001.5,2215.2 L 6012.5,2217.6 L 6023.4,2220.2 L 6034.2,2223.1 L 6045.0,2226.3 L 6055.6,2229.7 L 6066.2,2233.4 L 6076.7,2237.4 L 6087.1,2241.6 L 6097.4,2246.1 L 6107.6,2250.8 L 6117.6,2255.8 L 6127.5,2261.1 L 6137.3,2266.6 L 6147.0,2272.3 L 6156.5,2278.3 L 6165.8,2284.5 L 6175.0,2290.9 L 6184.0,2297.6 L 6192.9,2304.5 L 6201.6,2311.6 L 6210.1,2318.9 L 6218.4,2326.4 L 6226.5,2334.1 L 6234.5,2342.1 L 6242.2,2350.2 L 6249.7,2358.5 L 6257.0,2367.0 L 6264.2,2375.7 L 6271.0,2384.6 L 6277.7,2393.6 L 6284.1,2402.8 L 6290.3,2412.1 L 6296.3,2421.6 L 6302.0,2431.3 L 6307.5,2441.1 L 6312.8,2451.0 L 6317.8,2461.0 L 6322.5,2471.2 L 6327.0,2481.5 L 6331.2,2491.9 L 6335.2,2502.4 L 6338.9,2513.0 L 6342.3,2523.6 L 6345.5,2534.4 L 6348.4,2545.2 L 6351.0,2556.1 L 6353.4,2567.1 L 6355.5,2578.1 L 6357.3,2589.2 L 6358.8,2600.3 L 6360.1,2611.5 L 6361.1,2622.6 L 6361.8,2633.8 L 6362.2,2645.1 L 6362.3,2656.3" fill="none" stroke="#00aa00" stroke-width="6"/>
<polygon points="6251.9,2360.0 6206.3,2334.6 6227.7,2313.7" fill="#00aa00"/>
<circle cx="958.9" cy="5534.3" r="10" fill="#e74c3c" />
<circle cx="3380.9" cy="5534.3" r="10" fill="#e74c3c" />
<circle cx="9752.6" cy="5534.3" r="10" fill="#e74c3c" />
<circle cx="11897.8" cy="5534.3" r="10" fill="#e74c3c" />
<circle cx="1858.9" cy="4634.3" r="10" fill="#e74c3c" />
<circle cx="4649.9" cy="4634.3" r="10" fill="#e74c3c" />
<circle cx="5912.3" cy="4634.3" r="10" fill="#e74c3c" />
<circle cx="7280.4" cy="4634.3" r="10" fill="#e74c3c" />
<circle cx="7380.2" cy="4634.3" r="10" fill="#e74c3c" />
<circle cx="8483.6" cy="4634.3" r="10" fill="#e74c3c" />
<circle cx="10997.8" cy="4634.3" r="10" fill="#e74c3c" />
<circle cx="1858.9" cy="2206.3" r="10" fill="#e74c3c" />
<circle cx="3518.2" cy="2206.3" r="10" fill="#e74c3c" />
<circle cx="5912.3" cy="2206.3" r="10" fill="#e74c3c" />
<circle cx="7280.4" cy="2206.3" r="10" fill="#e74c3c" />
<circle cx="9932.1" cy="2206.3" r="10" fill="#e74c3c" />
<circle cx="10997.8" cy="2206.3" r="10" fill="#e74c3c" />
<circle cx="958.9" cy="1306.3" r="10" fill="#e74c3c" />
<circle cx="4787.1" cy="1306.3" r="10" fill="#e74c3c" />
<circle cx="8663.1" cy="1306.3" r="10" fill="#e74c3c" />
<circle cx="11897.8" cy="1306.3" r="10" fill="#e74c3c" />
<circle cx="11447.8" cy="4184.3" r="10" fill="#e74c3c" />
<circle cx="11447.8" cy="2656.3" r="10" fill="#e74c3c" />
<circle cx="12347.8" cy="5084.3" r="10" fill="#e74c3c" />
<circle cx="12347.8" cy="1756.3" r="10" fill="#e74c3c" />
<circle cx="1408.9" cy="4184.3" r="10" fill="#e74c3c" />
<circle cx="1408.9" cy="2656.3" r="10" fill="#e74c3c" />
<circle cx="508.9" cy="5084.3" r="10" fill="#e74c3c" />
<circle cx="508.9" cy="1756.3" r="10" fill="#e74c3c" />
<circle cx="8982.3" cy="1439.0" r="10" fill="#e74c3c" />
<circle cx="9612.9" cy="2073.5" r="10" fill="#e74c3c" />
<circle cx="4468.0" cy="1439.0" r="10" fill="#e74c3c" />
<circle cx="3837.4" cy="2073.5" r="10" fill="#e74c3c" />
<circle cx="8802.8" cy="4767.0" r="10" fill="#e74c3c" />
<circle cx="9433.4" cy="5401.5" r="10" fill="#e74c3c" />
<circle cx="4330.7" cy="4767.0" r="10" fill="#e74c3c" />
<circle cx="3700.1" cy="5401.5" r="10" fill="#e74c3c" />
<circle cx="6830.4" cy="4184.3" r="10" fill="#e74c3c" />
<circle cx="6830.4" cy="2656.3" r="10" fill="#e74c3c" />
<circle cx="6362.3" cy="4184.3" r="10" fill="#e74c3c" />
<circle cx="6362.3" cy="2656.3" r="10" fill="#e74c3c" />
<rect x="7374.2" y="4628.3" width="12" height="12" fill="#3498db" stroke="#2980b9" stroke-width="1" rx="2"/>
<text x="7380.2" y="4624.3" font-size="9" font-family="sans-serif" text-anchor="middle" fill="#2c3e50">station-5</text>
<rect x="10398.9" y="5530.7" width="12" height="12" fill="#3498db" stroke="#2980b9" stroke-width="1" rx="2"/>
<text x="10404.9" y="5526.7" font-size="9" font-family="sans-serif" text-anchor="middle" fill="#2c3e50">station-3</text>
<rect x="6262.6" y="5530.7" width="12" height="12" fill="#3498db" stroke="#2980b9" stroke-width="1" rx="2"/>
<text x="6268.6" y="5526.7" font-size="9" font-family="sans-serif" text-anchor="middle" fill="#2c3e50">station-2</text>
<rect x="10185.7" y="1302.7" width="12" height="12" fill="#3498db" stroke="#2980b9" stroke-width="1" rx="2"/>
<text x="10191.7" y="1298.7" font-size="9" font-family="sans-serif" text-anchor="middle" fill="#2c3e50">station-10</text>
<rect x="6262.6" y="2202.7" width="12" height="12" fill="#3498db" stroke="#2980b9" stroke-width="1" rx="2"/>
<text x="6268.6" y="2198.7" font-size="9" font-family="sans-serif" text-anchor="middle" fill="#2c3e50">station-7</text>
<rect x="2140.5" y="2202.7" width="12" height="12" fill="#3498db" stroke="#2980b9" stroke-width="1" rx="2"/>
<text x="2146.5" y="2198.7" font-size="9" font-family="sans-serif" text-anchor="middle" fill="#2c3e50">station-6</text>
<rect x="1785.2" y="5530.7" width="12" height="12" fill="#3498db" stroke="#2980b9" stroke-width="1" rx="2"/>
<text x="1791.2" y="5526.7" font-size="9" font-family="sans-serif" text-anchor="middle" fill="#2c3e50">station-1</text>
<rect x="3021.8" y="4630.7" width="12" height="12" fill="#3498db" stroke="#2980b9" stroke-width="1" rx="2"/>
<text x="3027.8" y="4626.7" font-size="9" font-family="sans-serif" text-anchor="middle" fill="#2c3e50">station-4</text>
<rect x="2510.1" y="1302.7" width="12" height="12" fill="#3498db" stroke="#2980b9" stroke-width="1" rx="2"/>
<text x="2516.1" y="1298.7" font-size="9" font-family="sans-serif" text-anchor="middle" fill="#2c3e50">station-8</text>
<rect x="6262.6" y="1302.7" width="12" height="12" fill="#3498db" stroke="#2980b9" stroke-width="1" rx="2"/>
<text x="6268.6" y="1298.7" font-size="9" font-family="sans-serif" text-anchor="middle" fill="#2c3e50">station-9</text>
</svg>