<svg xmlns="http://www.w3.org/2000/svg" width="2640" height="1320" viewBox="0 0 2640 1320">
<rect x="0" y="0" width="2640" height="1320" fill="rgb(255,255,255)"/>
<polyline points="404,265 403,265 402,265 401,265 400,265 399,265 398,265 397,265 396,265 395,265 394,265 393,265 392,265 391,265 390,265 389,265 388,265 387,265 386,265 385,265 384,265 383,265 382,265 381,265 380,265 379,265 378,265 377,265 376,265 375,265 374,265 373,264 373,263 373,262 373,261 372,260 371,259 370,259 369,259 368,259 367,259 366,260 365,260 364,261 363,262 362,263 361,264 360,265 359,266 358,266 357,266 356,266 355,266 354,266 353,266 352,267 351,267 350,267 349,267 348,267 347,268 346,268 345,268 344,268 343,269 342,269 341,269 340,270 339,270 338,271" fill="none" stroke="rgb(20,20,20)" stroke-width="2"/>
<polyline points="963,265 962,265 961,265 960,265 959,265 958,265 957,265 956,265 955,265 954,265 953,265 952,265 951,265 950,265 949,265 948,265 947,265 946,265 945,265 944,265 943,265 942,265 941,265 940,265 939,265 938,265 937,265 936,265 935,265 934,265 933,265 932,265 931,265 930,265 929,265 928,265 927,265 926,265 925,265 924,265 923,265 922,265 921,265 920,265 919,265 918,265 917,265 916,265 915,265 914,265 913,265 912,265 911,265 910,265 909,265 908,265 907,265 906,265 905,265 904,265 903,265 902,265 901,265 900,265 899,265 898,265 897,265 896,265 895,265 894,265 893,265 892,265 891,265 890,265 889,265 888,265 887,265 886,265 885,265 884,265 883,265 882,265 881,265 880,265 879,265 878,265 877,265 876,265 875,265 874,265 873,265 872,265 871,265 870,265 869,265 868,265 867,265 866,265 865,265 864,265 863,265 862,265 861,265 860,265 859,265 858,264 857,264 856,264 855,264 854,264 853,264 852,264 851,264 850,265 849,265 848,265 847,266 846,266 845,266 844,266 843,266 842,266 841,266 840,266 839,266 838,265 837,265 836,265 835,265" fill="none" stroke="rgb(20,20,20)" stroke-width="2"/>
<polygon points="897.0,265.0 905.0,261.0 905.0,269.0" fill="rgb(255,140,0)"/>
<polyline points="1853,265 1854,265 1855,265 1856,265 1857,265 1858,265 1859,265 1860,265 1861,265 1862,265 1863,265 1864,265 1865,265 1866,265 1867,265 1868,265 1869,265 1870,265 1871,265 1872,265 1873,265 1874,265 1875,265 1876,265 1877,265 1878,265 1879,265 1880,265 1881,265 1882,265 1883,265 1884,265 1885,265 1886,265 1887,265 1888,265 1889,265 1890,265 1891,265 1892,265 1893,265 1894,265 1895,265 1896,265 1897,265 1898,265 1899,265 1900,265 1901,265 1902,265 1903,265 1904,265 1905,265 1906,265 1907,265 1908,265 1909,265 1910,265 1911,265 1912,265 1913,265 1914,265 1915,265 1916,265 1917,265 1918,265 1919,265 1920,265 1921,265 1922,265 1923,265 1924,265 1925,265 1926,265 1927,265 1928,265 1929,265 1930,265 1931,265 1932,265 1933,265 1934,265 1935,265 1936,265 1937,265 1938,265 1939,265 1940,265 1941,265 1942,265 1943,265 1944,265 1945,265 1946,265 1947,265 1948,265 1949,265 1950,265 1951,265 1952,265 1953,265 1954,265 1955,265 1956,265 1957,265 1958,265 1959,265 1960,265 1961,265 1962,265 1963,265 1964,265 1965,265 1966,265 1967,265 1968,265 1969,265 1970,265 1971,265 1972,265 1973,265 1974,264 1975,264 1976,264 1977,264 1978,264 1979,264 1980,264 1981,264 1982,264 1983,264 1984,264 1985,264 1986,264 1987,264 1988,264 1989,265 1990,266 1991,266 1992,266 1993,266 1994,265 1995,265 1996,265 1997,265 1998,265 1999,265 2000,265" fill="none" stroke="rgb(20,20,20)" stroke-width="2"/>
<polygon points="1925.0,265.0 1933.0,261.0 1933.0,269.0" fill="rgb(255,140,0)"/>
<polyline points="2037,265 2036,265 2035,265 2034,265 2033,265 2032,265 2031,265 2030,265 2029,265 2028,265 2027,265 2026,265 2025,265 2024,265 2023,265 2022,265 2021,265 2020,265 2019,265 2018,265 2017,265 2016,265 2015,264 2015,263 2015,262 2015,261 2015,260 2014,259 2013,259 2012,259 2011,259 2010,259 2009,260 2009,261 2009,262 2009,263 2009,264 2008,265 2007,265 2006,265 2005,265 2004,265 2003,265 2002,265 2001,265 2000,265" fill="none" stroke="rgb(20,20,20)" stroke-width="2"/>
<polygon points="2015.0,261.0 2020.8209228515625,267.7909851074219 2013.0596923828125,269.7312927246094" fill="rgb(255,140,0)"/>
<polyline points="589,433 588,433 587,433 586,433 585,433 584,433 583,433 582,433 581,433 580,433 579,433 578,433 577,433 576,433 575,433 574,433 573,433 572,433 571,433 570,433 569,433 568,433 567,433 566,433 565,433 564,433 563,433 562,433 561,433 560,433 559,433 558,433 557,433 556,433 555,433 554,433 553,433 552,433 551,433 550,433 549,433 548,433 547,433 546,433 545,433 544,433 543,433 542,433 541,432 541,431 541,430 541,429 540,428 539,427 538,427 537,427 536,427 535,427 534,428 533,428 532,429 531,430 530,431 529,432 528,433 527,434 526,434 525,434 524,434 523,434 522,434 521,435 520,435 519,435 518,435 517,435 516,435 515,436 514,436 513,436 512,436 511,437 510,437 509,437 508,438 507,438 506,439" fill="none" stroke="rgb(20,20,20)" stroke-width="2"/>
<polyline points="976,433 977,433 978,433 979,433 980,433 981,433 982,433 983,433 984,433 985,433 986,433 987,433 988,433 989,433 990,433 991,433 992,433 993,433 994,433 995,433 996,433 997,433 998,433 999,433 1000,433 1001,433 1002,433 1003,433 1004,433 1005,433 1006,433 1007,433 1008,433 1009,433 1010,433 1011,433 1012,433 1013,433 1014,433 1015,433 1016,433 1017,433 1018,433 1019,433 1020,433 1021,433 1022,432 1022,431 1022,430 1022,429 1022,428 1022,427 1022,426 1022,425 1021,424 1020,423 1019,423 1018,422 1017,422 1016,421 1015,421 1014,420 1013,420" fill="none" stroke="rgb(20,20,20)" stroke-width="2"/>
<polyline points="1532,431 1532,432 1531,433 1530,434 1530,435" fill="none" stroke="rgb(20,20,20)" stroke-width="2"/>
<polygon points="1530.0,435.0 1530.0,426.05572509765625 1537.155517578125,429.6334228515625" fill="rgb(255,140,0)"/>
<polyline points="2134,433 2135,433 2136,433 2137,433 2138,433 2139,433 2140,433 2141,433 2142,433 2143,433 2144,433 2145,433 2146,433 2147,433 2148,433 2149,433 2150,433 2151,433 2152,433 2153,433 2154,433 2155,433 2156,433 2157,433 2158,433 2159,433 2160,433 2161,433 2162,433 2163,433 2164,433 2165,433 2166,433 2167,433 2168,433 2169,433 2170,433 2171,433 2172,433 2173,433 2174,433 2175,433 2176,433 2177,433 2178,433 2179,433 2180,433 2181,433 2182,433 2183,433 2184,433 2185,433 2186,433 2187,433 2188,433 2189,433 2190,433 2191,433 2192,433 2193,433 2194,433 2195,433 2196,433 2197,433 2198,433 2199,433 2200,433 2201,433 2202,433 2203,433 2204,433 2205,433 2206,433 2207,433 2208,433 2209,433 2210,433 2211,433 2212,433 2213,433 2214,433 2215,433 2216,433 2217,433 2218,433 2219,433 2220,433 2221,433 2222,433 2223,433 2224,433 2225,433 2226,433 2227,433 2228,433 2229,433 2230,433 2231,433 2232,433 2233,433 2234,433 2235,433 2236,433 2237,433 2238,433 2239,433 2240,432 2240,431 2240,430 2241,429 2241,428 2242,427 2243,427 2244,427 2245,427 2246,427 2247,428 2248,428 2249,429 2250,430 2251,430 2252,431 2252,432 2253,433 2254,434 2255,434 2256,434 2257,434 2258,434 2259,434 2260,435 2261,435 2262,435 2263,435 2264,435 2265,436 2266,436 2267,436 2268,436 2269,437 2270,437 2271,437 2272,438 2273,438 2274,438 2275,439 2276,439 2277,440" fill="none" stroke="rgb(20,20,20)" stroke-width="2"/>
<polyline points="961,887 960,887 959,887 958,887 957,887 956,887 955,887 954,887 953,887 952,887 951,887 950,887 949,887 948,887 947,887 946,887 945,887 944,887 943,887 942,887 941,887 940,887 939,887 938,887 937,887 936,887 935,887 934,887 933,887 932,887 931,887 930,887 929,887 928,887 927,887 926,887 925,887 924,887 923,887 922,887 921,887 920,887 919,887 918,887 917,887 916,887 915,887 914,887 913,887 912,887 911,887 910,887 909,887 908,887 907,887 906,887 905,887 904,887 903,887 902,887 901,887 900,887 899,887 898,887 897,887 896,887 895,887 894,887 893,887 892,887 891,887 890,887 889,887 888,887 887,887 886,887 885,886 884,886 883,886 882,886 881,886 880,886 879,886 878,886 877,886 876,886 875,886 874,886 873,886 872,886 871,886 870,886 869,887 868,888 867,888 866,888 865,887 864,887 863,887 862,887 861,887 860,887 859,887 858,887" fill="none" stroke="rgb(20,20,20)" stroke-width="2"/>
<polygon points="911.0,887.0 903.0,891.0 903.0,883.0" fill="rgb(255,140,0)"/>
<polyline points="1184,887 1185,887 1186,887 1187,887 1188,887 1189,887 1190,887 1191,887 1192,887 1193,887 1194,887 1195,887 1196,887 1197,887 1198,887 1199,887 1200,887 1201,887 1202,887 1203,887 1204,887 1205,887 1206,887 1207,887 1208,887 1209,887 1210,887 1211,887 1212,887 1213,887 1214,887 1215,887 1216,887 1217,887 1218,887 1219,887 1220,887 1221,887 1222,887 1223,887 1224,887 1225,887 1226,887 1227,887 1228,887 1229,887 1230,887 1231,887 1232,887 1233,887 1234,887 1235,887 1236,887 1237,887 1238,887 1239,887 1240,887 1241,887 1242,887 1243,887 1244,887 1245,887 1246,887 1247,887 1248,887 1249,887 1250,887 1251,887 1252,887 1253,887 1254,887 1255,887 1256,887 1257,887 1258,887 1259,887 1260,887 1261,887 1262,887 1263,887 1264,887 1265,887 1266,887 1267,887 1268,887 1269,887 1270,887 1271,887 1272,887 1273,887 1274,887 1275,887 1276,887 1277,887 1278,887 1279,887 1280,887 1281,887 1282,887 1283,887 1284,887 1285,887 1286,887 1287,887 1288,887 1289,887 1290,886 1290,885 1290,884 1291,883 1291,882 1292,881 1293,881 1294,881 1295,881 1296,881 1297,882 1298,882 1299,883 1299,884 1299,885 1299,886 1298,887 1297,887" fill="none" stroke="rgb(20,20,20)" stroke-width="2"/>
<polygon points="1248.0,887.0 1240.0,891.0 1240.0,883.0" fill="rgb(255,140,0)"/>
<polyline points="1496,887 1497,887 1498,887 1499,887 1500,887 1501,887 1502,887 1503,887 1504,887 1505,887 1506,887 1507,887 1508,887 1509,887 1510,887 1511,887 1512,887 1513,887 1514,887 1515,887 1516,887 1517,887 1518,887 1519,886 1520,885 1520,884 1520,883 1519,882 1519,881" fill="none" stroke="rgb(20,20,20)" stroke-width="2"/>
<polygon points="1512.0,887.0 1504.0,891.0 1504.0,883.0" fill="rgb(255,140,0)"/>
<polyline points="1664,887 1663,887 1662,887 1661,887 1660,887 1659,887 1658,887 1657,887 1656,887 1655,887 1654,887 1653,887 1652,887 1651,887 1650,887 1649,887 1648,887 1647,887 1646,887 1645,887 1644,887 1643,887 1642,887 1641,887 1640,887 1639,887 1638,887 1637,887 1636,887 1635,887 1634,887 1633,887 1632,887 1631,887 1630,887 1629,887 1628,887 1627,887 1626,887 1625,887 1624,887 1623,887 1622,887 1621,887 1620,887 1619,887 1618,887 1617,887 1616,887 1615,887 1614,887 1613,887 1612,887 1611,887 1610,887 1609,887 1608,887 1607,887 1606,887 1605,887 1604,887 1603,887 1602,887 1601,887 1600,887 1599,887 1598,887 1597,887 1596,887 1595,887 1594,887 1593,887 1592,887 1591,887 1590,887 1589,887 1588,887 1587,887 1586,887 1585,887 1584,887 1583,887 1582,887 1581,887 1580,887 1579,887 1578,887 1577,887 1576,887 1575,887 1574,887 1573,887 1572,887 1571,887 1570,887 1569,887 1568,887 1567,887 1566,887 1565,887 1564,887 1563,887 1562,887 1561,887 1560,887 1559,887 1558,887 1557,887 1556,887 1555,887 1554,886 1554,885 1554,884 1554,883 1553,882 1552,881 1551,881 1550,881 1549,881 1548,881 1547,882 1546,882 1545,883 1545,884 1545,885 1544,886 1543,886 1542,886 1541,886 1540,886 1539,886 1538,886 1537,886 1536,886 1535,886 1534,886 1533,886 1532,886 1531,886 1530,886 1529,886 1528,886 1527,885 1526,885 1525,885 1524,885 1523,885 1522,885 1521,885 1520,884 1520,883 1519,882 1519,881" fill="none" stroke="rgb(20,20,20)" stroke-width="2"/>
<polyline points="1912,887 1913,887 1914,887 1915,887 1916,887 1917,887 1918,887 1919,887 1920,887 1921,887 1922,887 1923,887 1924,887 1925,887 1926,887 1927,887 1928,887 1929,887 1930,887 1931,887 1932,887 1933,887 1934,887 1935,887 1936,887 1937,887 1938,887 1939,887 1940,887 1941,887 1942,887 1943,887 1944,887 1945,887 1946,887 1947,887 1948,887 1949,887 1950,887 1951,887 1952,887 1953,887 1954,887 1955,887 1956,887 1957,887 1958,887 1959,887 1960,887 1961,887 1962,887 1963,887 1964,887 1965,887 1966,887 1967,887 1968,887 1969,887 1970,887 1971,887 1972,887 1973,887 1974,887 1975,887 1976,887 1977,887 1978,887 1979,887 1980,887 1981,887 1982,887 1983,887 1984,887 1985,887 1986,887 1987,887 1988,887 1989,887 1990,887 1991,887 1992,887 1993,887 1994,887 1995,887 1996,887 1997,887 1998,887 1999,887 2000,887 2001,887 2002,887 2003,887 2004,887 2005,887 2006,887 2007,886 2008,886 2009,886 2010,886 2011,886 2012,886 2013,886 2014,886 2015,886 2016,886 2017,887 2018,888 2019,888 2020,888 2021,888 2022,888 2023,888 2024,888 2025,888 2026,887 2027,887 2028,887 2029,887 2030,887 2031,887" fill="none" stroke="rgb(20,20,20)" stroke-width="2"/>
<polyline points="2095,887 2094,887 2093,887 2092,887 2091,887 2090,887 2089,887 2088,887 2087,887 2086,887 2085,887 2084,887 2083,887 2082,887 2081,887 2080,887 2079,887 2078,887 2077,887 2076,887 2075,887 2074,887 2073,887 2072,887 2071,887 2070,887 2069,887 2068,887 2067,887 2066,887 2065,887 2064,887 2063,887 2062,887 2061,887 2060,887 2059,887 2058,887 2057,887 2056,887 2055,887 2054,887 2053,887 2052,887 2051,887 2050,887 2049,886 2049,885 2049,884 2049,883 2048,882 2047,881 2046,881 2045,881 2044,881 2043,881 2042,882 2041,882 2040,883 2040,884 2040,885 2040,886 2039,887 2038,887 2037,887 2036,887 2035,887 2034,887 2033,887 2032,887 2031,887" fill="none" stroke="rgb(20,20,20)" stroke-width="2"/>
<polyline points="439,1055 438,1055 437,1055 436,1055 435,1055 434,1055 433,1055 432,1055 431,1055 430,1055 429,1055 428,1055 427,1055 426,1055 425,1055 424,1055 423,1055 422,1055 421,1055 420,1055 419,1055 418,1055 417,1055 416,1055 415,1055 414,1055 413,1055 412,1055 411,1055 410,1055 409,1055 408,1055 407,1055 406,1055 405,1055 404,1055 403,1055 402,1055 401,1055 400,1055 399,1055 398,1055 397,1055 396,1055 395,1055 394,1055 393,1055 392,1055 391,1055 390,1055 389,1055 388,1055 387,1055 386,1055 385,1055 384,1055 383,1055 382,1055 381,1055 380,1055 379,1055 378,1055 377,1055 376,1055 375,1055 374,1055 373,1054 373,1053 373,1052 373,1051 372,1050 371,1049 370,1049 369,1049 368,1049 367,1049 366,1050 365,1050 364,1051 363,1051 362,1052 361,1053 360,1054 359,1054 358,1054 357,1054 356,1054 355,1054 354,1053 353,1053 352,1053 351,1053 350,1052 349,1052 348,1052 347,1052 346,1051 345,1051 344,1051 343,1050 342,1050 341,1050 340,1049 339,1049 338,1048 337,1048 336,1048 335,1047" fill="none" stroke="rgb(20,20,20)" stroke-width="2"/>
<polyline points="970,1055 971,1055 972,1055 973,1055 974,1055 975,1055 976,1055 977,1055 978,1055 979,1055 980,1055 981,1055 982,1055 983,1055 984,1055 985,1055 986,1055 987,1055 988,1055 989,1055 990,1055 991,1055 992,1055 993,1055 994,1055 995,1055 996,1055 997,1055 998,1055 999,1055 1000,1055 1001,1055 1002,1055 1003,1055 1004,1055 1005,1055 1006,1055 1007,1055 1008,1055 1009,1055 1010,1055 1011,1055 1012,1055 1013,1055 1014,1055 1015,1055 1016,1055 1017,1055 1018,1055 1019,1055 1020,1055 1021,1055 1022,1055 1023,1055 1024,1055 1025,1055 1026,1055 1027,1055 1028,1055 1029,1055 1030,1055 1031,1055 1032,1055 1033,1055 1034,1055 1035,1055 1036,1055 1037,1055 1038,1055 1039,1055 1040,1055 1041,1055 1042,1055 1043,1055 1044,1055 1045,1055 1046,1055 1047,1055 1048,1054 1048,1053 1048,1052 1048,1051 1047,1050 1046,1049 1045,1048 1044,1047 1043,1046 1042,1045 1042,1044 1041,1043 1040,1042 1039,1041 1038,1041 1037,1040" fill="none" stroke="rgb(20,20,20)" stroke-width="2"/>
<polygon points="1015.0,1055.0 1023.0,1051.0 1023.0,1059.0" fill="rgb(255,140,0)"/>
<polyline points="1151,1055 1150,1055 1149,1055 1148,1055 1147,1055 1146,1055 1145,1055 1144,1055 1143,1055 1142,1055 1141,1055 1140,1055 1139,1055 1138,1055 1137,1055 1136,1055 1135,1055 1134,1055 1133,1055 1132,1055 1131,1055 1130,1055 1129,1055 1128,1055 1127,1055 1126,1055 1125,1055 1124,1055 1123,1055 1122,1055 1121,1055 1120,1055 1119,1055 1118,1055 1117,1055 1116,1055 1115,1055 1114,1055 1113,1055 1112,1055 1111,1055 1110,1055 1109,1055 1108,1055 1107,1055 1106,1055 1105,1055 1104,1055 1103,1055 1102,1055 1101,1055 1100,1055 1099,1055 1098,1055 1097,1055 1096,1055 1095,1055 1094,1055 1093,1055 1092,1055 1091,1055 1090,1055 1089,1055 1088,1054 1088,1053 1088,1052 1088,1051 1087,1050 1086,1049 1085,1049 1084,1049 1083,1049 1082,1049 1081,1050 1080,1050 1079,1051 1079,1052 1079,1053 1078,1054 1077,1054 1076,1054 1075,1054 1074,1054 1073,1054 1072,1054 1071,1054 1070,1054" fill="none" stroke="rgb(20,20,20)" stroke-width="2"/>
<polyline points="2334,1055 2335,1055 2336,1055 2337,1055 2338,1055 2339,1055 2340,1055 2341,1055 2342,1055 2343,1055 2344,1055 2345,1055 2346,1055 2347,1055 2348,1055 2349,1055 2350,1055 2351,1055 2352,1055 2353,1055 2354,1055 2355,1055 2356,1055 2357,1055 2358,1055 2359,1055 2360,1055 2361,1055 2362,1055 2363,1055 2364,1055 2365,1055 2366,1055 2367,1055 2368,1055 2369,1055 2370,1055 2371,1055 2372,1055 2373,1055 2374,1055 2375,1055 2376,1055 2377,1055 2378,1055 2379,1055 2380,1055 2381,1055 2382,1055 2383,1055 2384,1055 2385,1055 2386,1055 2387,1055 2388,1055 2389,1055 2390,1055 2391,1055 2392,1055 2393,1055 2394,1055 2395,1055 2396,1055 2397,1055 2398,1055 2399,1055 2400,1055 2401,1055 2402,1055 2403,1055 2404,1055 2405,1055 2406,1055 2407,1055 2408,1054 2408,1053 2408,1052 2408,1051 2408,1050 2409,1050 2410,1049 2411,1049 2412,1049 2413,1049 2414,1049 2415,1050 2416,1050 2417,1051 2418,1051 2419,1052 2420,1052 2421,1053 2422,1054 2423,1054 2424,1054 2425,1054 2426,1053 2427,1053 2428,1053 2429,1053 2430,1053 2431,1052 2432,1052 2433,1052 2434,1051 2435,1051 2436,1051 2437,1051 2438,1050 2439,1050 2440,1049 2441,1049 2442,1049 2443,1048" fill="none" stroke="rgb(20,20,20)" stroke-width="2"/>
<polyline points="368,264 367,263 366,262 366,261 365,260 364,261 363,262 362,263 361,264 360,265 359,266 358,266 357,266 356,266 355,266 354,266 353,266 352,267 351,267 350,267 349,267 348,267 347,268 346,268 345,268 344,268 343,269 342,269 341,269 340,270 339,270 338,271" fill="none" stroke="rgb(20,20,20)" stroke-width="2"/>
<polyline points="368,264 369,265" fill="none" stroke="rgb(20,20,20)" stroke-width="2"/>
<polyline points="2411,265 2410,265 2409,265 2408,264 2408,263 2408,262 2409,261 2409,260 2410,259 2411,259 2412,259 2413,259 2414,259 2415,260 2416,260 2417,261 2418,262 2419,262 2420,263 2421,264 2421,265 2421,266 2420,267 2419,268 2418,268 2417,269 2416,270 2415,270 2414,271 2413,271 2412,271 2411,271 2410,271 2409,270 2408,270 2407,269 2407,268 2407,267 2407,266 2406,265 2405,265 2404,265 2403,265 2402,265 2401,265 2400,265 2399,265 2398,265 2397,265 2396,265 2395,265 2394,265 2393,265 2392,265 2391,265 2390,265 2389,265 2388,265 2387,265 2386,265 2385,265 2384,265 2383,265 2382,265 2381,265 2380,265 2379,265 2378,265 2377,265 2376,265 2375,265 2374,265 2373,265 2372,265 2371,265 2370,265 2369,265 2368,265 2367,265 2366,265 2365,265 2364,265 2363,265 2362,265 2361,265 2360,265 2359,265 2358,265 2357,265 2356,265 2355,265 2354,265 2353,265 2352,265 2351,265 2350,265 2349,265 2348,265 2347,265 2346,265 2345,265" fill="none" stroke="rgb(20,20,20)" stroke-width="2"/>
<polyline points="2445,272 2444,271 2443,270 2442,270 2441,270 2440,269 2439,269 2438,269 2437,269 2436,268 2435,268 2434,268 2433,267 2432,267 2431,267 2430,267 2429,267 2428,266 2427,266 2426,266 2425,266 2424,266 2423,266 2422,266 2421,265 2421,264 2420,263 2419,262 2418,262 2417,261 2416,260 2415,260 2414,259 2413,259 2412,259 2411,259 2410,259 2409,260 2409,261 2408,262 2408,263 2408,264 2407,265 2406,265 2405,265 2404,265 2403,265 2402,265 2401,265 2400,265 2399,265 2398,265 2397,265 2396,265 2395,265 2394,265 2393,265 2392,265 2391,265 2390,265 2389,265 2388,265 2387,265 2386,265 2385,265 2384,265 2383,265 2382,265 2381,265 2380,265 2379,265 2378,265 2377,265 2376,265 2375,265 2374,265 2373,265 2372,265 2371,265 2370,265 2369,265 2368,265 2367,265 2366,265 2365,265 2364,265 2363,265 2362,265 2361,265 2360,265 2359,265 2358,265 2357,265 2356,265 2355,265 2354,265 2353,265 2352,265 2351,265 2350,265 2349,265 2348,265 2347,265 2346,265 2345,265" fill="none" stroke="rgb(20,20,20)" stroke-width="2"/>
<polyline points="292,315 291,316 291,317 290,318 290,319 289,320 289,321 289,322 289,323 288,324 288,325 288,326 287,327 287,328 287,329 287,330 287,331 286,332 286,333 286,334 286,335 286,336 286,337 286,338 286,339 285,340 284,341 283,342 282,343 281,344 280,345 280,346 279,347 279,348 279,349 279,350 279,351 280,352 281,353 282,353 283,353 284,353 285,352 285,351 285,350 285,349" fill="none" stroke="rgb(20,20,20)" stroke-width="2"/>
<polyline points="2490,318 2490,319 2491,320 2491,321 2492,322 2492,323 2492,324 2493,325 2493,326 2493,327 2493,328 2494,329 2494,330 2494,331 2494,332 2495,333 2495,334 2495,335 2495,336 2495,337 2496,338 2496,339 2495,340 2494,341 2493,342 2493,343 2492,344 2491,345 2491,346 2490,347 2490,348 2490,349 2490,350 2490,351 2491,352 2492,353 2493,353 2494,353 2495,353 2496,352 2496,351 2496,350 2496,349" fill="none" stroke="rgb(20,20,20)" stroke-width="2"/>
<polyline points="284,348 283,347 282,346 281,346 280,345 281,344 282,343 283,342 284,341 285,340 286,339 286,338 286,337 286,336 286,335 286,334 286,333 286,332 287,331 287,330 287,329 287,328 287,327 288,326 288,325 288,324 289,323 289,322 289,321 289,320 290,319 290,318 291,317 291,316 292,315" fill="none" stroke="rgb(20,20,20)" stroke-width="2"/>
<polyline points="284,348 285,349" fill="none" stroke="rgb(20,20,20)" stroke-width="2"/>
<polyline points="2496,349 2495,348 2494,347 2493,346 2492,346 2491,345 2492,344 2493,343 2494,342 2495,341 2496,340 2496,339 2496,338 2495,337 2495,336 2495,335 2495,334 2495,333 2494,332 2494,331 2494,330 2494,329 2493,328 2493,327 2493,326 2493,325 2492,324 2492,323 2492,322 2491,321 2491,320 2490,319 2490,318" fill="none" stroke="rgb(20,20,20)" stroke-width="2"/>
<polyline points="1821,418 1822,418 1823,417 1824,416 1825,415 1826,415 1827,414 1828,414 1829,414 1830,414 1831,414 1832,414 1833,414" fill="none" stroke="rgb(20,20,20)" stroke-width="2"/>
<polygon points="1825.0,415.0 1831.791015625,409.17913818359375 1833.731201171875,416.9403076171875" fill="rgb(255,140,0)"/>
<polyline points="1047,432 1046,432 1045,432 1044,432 1043,432 1042,432 1041,432 1040,432 1039,432 1038,432 1037,431 1036,430 1036,429 1035,428 1034,427 1033,426 1032,426 1031,425 1030,424 1029,423 1028,422 1027,421 1026,421 1025,422 1024,423 1023,423 1022,424 1021,424 1020,423 1019,423 1018,422 1017,422 1016,421 1015,421 1014,420 1013,420" fill="none" stroke="rgb(20,20,20)" stroke-width="2"/>
<polygon points="1028.0,422.0 1036.4852294921875,424.82843017578125 1030.8284912109375,430.48529052734375" fill="rgb(255,140,0)"/>
<polyline points="536,432 535,431 534,430 534,429 533,428 532,429 531,430 530,431 529,432 528,433 527,434 526,434 525,434 524,434 523,434 522,434 521,435 520,435 519,435 518,435 517,435 516,435 515,436 514,436 513,436 512,436 511,437 510,437 509,437 508,438 507,438 506,439" fill="none" stroke="rgb(20,20,20)" stroke-width="2"/>
<polyline points="536,432 537,433" fill="none" stroke="rgb(20,20,20)" stroke-width="2"/>
<polyline points="2243,433 2242,433 2241,433 2240,432 2240,431 2240,430 2241,429 2241,428 2242,427 2243,427 2244,427 2245,427 2246,427 2247,428 2248,428 2249,429 2250,430 2251,430 2252,431 2252,432 2253,433 2254,434 2255,434 2256,434 2257,434 2258,434 2259,434 2260,435 2261,435 2262,435 2263,435 2264,435 2265,436 2266,436 2267,436 2268,436 2269,437 2270,437 2271,437 2272,438 2273,438 2274,438 2275,439 2276,439 2277,440" fill="none" stroke="rgb(20,20,20)" stroke-width="2"/>
<polyline points="460,483 459,484 459,485 458,486 458,487 458,488 457,489 457,490 457,491 456,492 456,493 456,494 456,495 455,496 455,497 455,498 455,499 455,500 454,501 454,502 454,503 454,504 454,505 454,506 454,507 453,508 452,509 451,510 450,511 449,512 448,513 448,514 447,515 447,516 447,517 447,518 447,519 448,520 449,521 450,521 451,521 452,521 453,520 453,519 453,518 453,517" fill="none" stroke="rgb(20,20,20)" stroke-width="2"/>
<polyline points="1473,483 1472,484 1471,485 1471,486 1471,487 1470,488 1470,489 1470,490 1469,491 1469,492 1469,493 1469,494 1468,495 1468,496 1468,497 1468,498 1467,499 1467,500 1467,501 1467,502 1467,503 1467,504 1467,505 1466,506 1466,507 1465,508 1464,509 1463,510 1463,511 1462,512 1461,513 1461,514 1460,515 1460,516 1460,517 1460,518 1460,519 1461,520 1462,521 1463,521 1464,521 1465,521 1466,520 1466,519 1466,518 1466,517" fill="none" stroke="rgb(20,20,20)" stroke-width="2"/>
<polyline points="2321,485 2322,486 2322,487 2323,488 2323,489 2323,490 2324,491 2324,492 2324,493 2325,494 2325,495 2325,496 2326,497 2326,498 2326,499 2326,500 2327,501 2327,502 2327,503 2327,504 2327,505 2328,506 2328,507 2327,508 2326,509 2325,510 2325,511 2324,512 2323,513 2323,514 2322,515 2322,516 2322,517 2322,518 2322,519 2323,520 2324,521 2325,521 2326,521 2327,521 2328,520 2328,519 2328,518 2328,517" fill="none" stroke="rgb(20,20,20)" stroke-width="2"/>
<polyline points="1371,485 1372,486 1373,487 1373,488 1373,489 1373,490 1374,491 1374,492 1374,493 1375,494 1375,495 1375,496 1376,497 1376,498 1376,499 1376,500 1377,501 1377,502 1377,503 1377,504 1377,505 1378,506 1378,507 1377,508 1376,509 1375,510 1375,511 1374,512 1373,513 1373,514 1372,515 1372,516 1372,517 1372,518 1372,519 1373,520 1374,521 1375,521 1376,521 1377,521 1378,520 1378,519 1378,518 1378,517" fill="none" stroke="rgb(20,20,20)" stroke-width="2"/>
<polyline points="452,516 451,515 450,514 449,514 448,513 449,512 450,511 451,510 452,509 453,508 454,507 454,506 454,505 454,504 454,503 454,502 454,501 455,500 455,499 455,498 455,497 455,496 456,495 456,494 456,493 456,492 457,491 457,490 457,489 458,488 458,487 458,486 459,485 459,484 460,483" fill="none" stroke="rgb(20,20,20)" stroke-width="2"/>
<polyline points="452,516 453,517" fill="none" stroke="rgb(20,20,20)" stroke-width="2"/>
<polyline points="1378,517 1377,516 1376,515 1375,514 1374,514 1373,513 1374,512 1375,511 1376,510 1377,509 1378,508 1378,507 1378,506 1377,505 1377,504 1377,503 1377,502 1377,501 1376,500 1376,499 1376,498 1376,497 1375,496 1375,495 1375,494 1374,493 1374,492 1374,491 1373,490 1373,489 1373,488 1372,487 1372,486 1371,485" fill="none" stroke="rgb(20,20,20)" stroke-width="2"/>
<polyline points="2328,517 2327,516 2326,515 2325,514 2324,514 2323,513 2324,512 2325,511 2326,510 2327,509 2327,508 2328,507 2328,506 2327,505 2327,504 2327,503 2327,502 2327,501 2326,500 2326,499 2326,498 2326,497 2325,496 2325,495 2325,494 2324,493 2324,492 2324,491 2323,490 2323,489 2323,488 2322,487 2322,486 2321,485" fill="none" stroke="rgb(20,20,20)" stroke-width="2"/>
<polyline points="1378,802 1378,801 1378,800 1377,799 1376,799 1375,799 1374,800 1373,800 1372,801 1372,802 1372,803 1372,804 1372,805 1373,806 1373,807 1374,808 1375,809 1375,810 1376,811 1377,812 1378,813 1377,814 1377,815 1377,816 1377,817 1377,818 1376,819 1376,820 1376,821 1376,822 1375,823 1375,824 1375,825 1374,826 1374,827 1374,828 1373,829 1373,830 1373,831 1372,832 1372,833 1371,834 1371,835 1371,836 1370,837" fill="none" stroke="rgb(20,20,20)" stroke-width="2"/>
<polyline points="1466,802 1466,801 1466,800 1465,799 1464,799 1463,799 1462,799 1461,799 1461,800 1460,801 1460,802 1460,803 1460,804 1460,805 1461,806 1461,807 1462,808 1463,809 1463,810 1464,811 1465,812 1466,813 1467,814 1467,815 1467,816 1467,817 1467,818 1467,819 1467,820 1468,821 1468,822 1468,823 1468,824 1469,825 1469,826 1469,827 1469,828 1470,829 1470,830 1470,831 1471,832 1471,833 1472,834" fill="none" stroke="rgb(20,20,20)" stroke-width="2"/>
<polyline points="2328,802 2328,801 2328,800 2327,799 2326,799 2325,799 2324,800 2323,800 2322,801 2322,802 2322,803 2322,804 2322,805 2323,806 2323,807 2324,808 2325,809 2325,810 2326,811 2327,812 2328,813 2327,814 2327,815 2327,816 2327,817 2327,818 2326,819 2326,820 2326,821 2326,822 2325,823 2325,824 2325,825 2324,826 2324,827 2324,828 2323,829 2323,830 2323,831 2322,832 2322,833 2321,834 2321,835 2320,836" fill="none" stroke="rgb(20,20,20)" stroke-width="2"/>
<polyline points="858,887 857,887 856,887 855,887 854,887 853,887 852,886 852,885 852,884 852,883 851,882 850,882 849,881 848,881 847,881 846,881 845,881 844,882 843,883 843,884 843,885 843,886 842,887 841,887 840,887 839,887 838,887 837,887 836,887 835,887 834,887 833,887 832,887 831,887 830,887 829,887 828,887 827,887 826,887 825,887 824,887 823,887 822,887 821,887 820,887 819,887 818,887 817,887 816,887 815,887 814,887 813,887 812,887 811,887 810,887 809,887 808,887 807,887 806,887 805,887 804,887 803,887 802,887 801,887 800,887 799,887 798,887 797,887 796,887 795,887 794,887 793,887 792,887 791,887 790,887 789,887 788,887 787,887 786,887 785,887 784,887" fill="none" stroke="rgb(20,20,20)" stroke-width="2"/>
<polygon points="826.0,887.0 818.0,891.0 818.0,883.0" fill="rgb(255,140,0)"/>
<polyline points="1997,901 1998,900 1999,900 2000,899 2001,898 2002,898 2003,897 2003,896 2004,895 2005,894 2006,893 2007,892 2008,891 2009,890 2009,889 2008,888 2007,887 2007,886 2008,886 2009,886 2010,886 2011,886 2012,886 2013,886 2014,886 2015,886 2016,886 2017,887 2018,888 2019,888 2020,888 2021,888 2022,888 2023,888 2024,888 2025,888 2026,887 2027,887 2028,887 2029,887 2030,887 2031,887" fill="none" stroke="rgb(20,20,20)" stroke-width="2"/>
<polygon points="2013.0,886.0 2005.0,890.0 2005.0,882.0" fill="rgb(255,140,0)"/>
<polyline points="1853,1041 1854,1040 1855,1040 1856,1039 1857,1038 1858,1038 1859,1037 1860,1036 1861,1036 1862,1036 1863,1036 1864,1036 1865,1036 1866,1036 1867,1036" fill="none" stroke="rgb(20,20,20)" stroke-width="2"/>
<polygon points="1862.0,1036.0 1856.6334228515625,1043.155517578125 1853.0557861328125,1036.0" fill="rgb(255,140,0)"/>
<polyline points="1819,1054 1818,1054 1817,1054 1816,1054 1815,1054 1814,1054 1813,1053 1813,1052 1813,1051 1812,1050 1811,1050 1810,1049 1809,1049 1808,1049 1807,1049 1806,1049 1805,1050 1805,1051 1804,1052 1804,1053 1804,1054 1803,1055 1802,1055 1801,1055 1800,1055 1799,1055 1798,1055 1797,1055 1796,1055 1795,1055 1794,1055 1793,1055 1792,1055 1791,1055 1790,1055 1789,1055 1788,1055 1787,1055 1786,1055 1785,1055 1784,1055 1783,1055 1782,1055 1781,1055 1780,1055 1779,1055 1778,1055 1777,1055 1776,1055 1775,1055 1774,1055 1773,1055 1772,1055 1771,1055 1770,1055 1769,1055 1768,1055 1767,1055 1766,1055 1765,1055 1764,1055 1763,1055 1762,1055 1761,1055 1760,1055 1759,1055 1758,1055 1757,1055 1756,1055 1755,1055 1754,1055 1753,1055 1752,1055 1751,1055 1750,1055 1749,1055 1748,1055 1747,1055 1746,1055 1745,1055 1744,1055 1743,1055 1742,1055 1741,1055 1740,1055 1739,1055 1738,1055 1737,1055 1736,1055 1735,1055 1734,1055 1733,1055 1732,1055 1731,1055 1730,1055 1729,1055 1728,1055 1727,1055 1726,1055 1725,1055 1724,1055 1723,1055 1722,1055 1721,1055 1720,1055 1719,1055 1718,1055 1717,1055 1716,1055 1715,1055 1714,1055 1713,1055 1712,1055 1711,1055 1710,1055 1709,1055 1708,1055 1707,1055 1706,1055 1705,1055 1704,1055 1703,1055 1702,1055 1701,1055 1700,1055 1699,1055 1698,1055 1697,1055" fill="none" stroke="rgb(20,20,20)" stroke-width="2"/>
<polyline points="369,1055 370,1055 371,1055 372,1055 373,1054 373,1053 373,1052 373,1051 372,1050 371,1049 370,1049 369,1049 368,1049 367,1049 366,1050 365,1050 364,1051 363,1051 362,1052 361,1053 360,1054 359,1054 358,1054 357,1054 356,1054 355,1054 354,1053 353,1053 352,1053 351,1053 350,1052 349,1052 348,1052 347,1052 346,1051 345,1051 344,1051 343,1050 342,1050 341,1050 340,1049 339,1049 338,1048 337,1048 336,1048 335,1047" fill="none" stroke="rgb(20,20,20)" stroke-width="2"/>
<polyline points="2411,1055 2410,1055 2409,1055 2408,1054 2408,1053 2408,1052 2408,1051 2408,1050 2409,1050 2410,1049 2411,1049 2412,1049 2413,1049 2414,1049 2415,1050 2416,1050 2417,1051 2418,1051 2419,1052 2420,1052 2421,1053 2422,1054 2423,1054 2424,1054 2425,1054 2426,1053 2427,1053 2428,1053 2429,1053 2430,1053 2431,1052 2432,1052 2433,1052 2434,1051 2435,1051 2436,1051 2437,1051 2438,1050 2439,1050 2440,1049 2441,1049 2442,1049 2443,1048" fill="none" stroke="rgb(20,20,20)" stroke-width="2"/>
<polyline points="369,265 370,265 371,265 372,265 373,264 373,263 373,262 373,261 372,260 371,259 370,259 369,259 368,259 367,259 366,260 365,260 364,261 363,262 362,263 361,264 360,265 359,266 358,266 357,266 356,266 355,266 354,266 353,266 352,267 351,267 350,267 349,267 348,267 347,268 346,268 345,268 344,268 343,269 342,269 341,269 340,270 339,270 338,271" fill="none" stroke="rgb(20,20,20)" stroke-width="2"/>
<polyline points="1958,289 1958,288 1958,287 1958,286 1958,285 1959,284 1959,283 1960,282 1961,281 1962,280 1963,280 1964,279 1965,278 1966,278" fill="none" stroke="rgb(20,20,20)" stroke-width="2"/>
<polyline points="537,433 538,433 539,433 540,433 541,432 541,431 541,430 541,429 540,428 539,427 538,427 537,427 536,427 535,427 534,428 533,428 532,429 531,430 530,431 529,432 528,433 527,434 526,434 525,434 524,434 523,434 522,434 521,435 520,435 519,435 518,435 517,435 516,435 515,436 514,436 513,436 512,436 511,437 510,437 509,437 508,438 507,438 506,439" fill="none" stroke="rgb(20,20,20)" stroke-width="2"/>
<circle cx="475.8292682926829" cy="263.4634146341463" r="4" fill="rgb(255,0,0)" stroke="rgb(0,0,0)" stroke-width="1"/>
<circle cx="1311.8292682926829" cy="263.4634146341463" r="4" fill="rgb(255,0,0)" stroke="rgb(0,0,0)" stroke-width="1"/>
<circle cx="2084.829268292683" cy="263.4634146341463" r="4" fill="rgb(255,0,0)" stroke="rgb(0,0,0)" stroke-width="1"/>
<circle cx="2228.398663697105" cy="264.44766146993317" r="4" fill="rgb(255,0,0)" stroke="rgb(0,0,0)" stroke-width="1"/>
<circle cx="404.5" cy="264.5" r="4" fill="rgb(255,0,0)" stroke="rgb(0,0,0)" stroke-width="1"/>
<circle cx="457.6940298507463" cy="264.7238805970149" r="4" fill="rgb(255,0,0)" stroke="rgb(0,0,0)" stroke-width="1"/>
<circle cx="487.2903225806452" cy="264.01612903225805" r="4" fill="rgb(255,0,0)" stroke="rgb(0,0,0)" stroke-width="1"/>
<circle cx="513.5" cy="264.5" r="4" fill="rgb(255,0,0)" stroke="rgb(0,0,0)" stroke-width="1"/>
<circle cx="531.5" cy="264.5" r="4" fill="rgb(255,0,0)" stroke="rgb(0,0,0)" stroke-width="1"/>
<circle cx="548.8301886792453" cy="265.0188679245283" r="4" fill="rgb(255,0,0)" stroke="rgb(0,0,0)" stroke-width="1"/>
<circle cx="565.375" cy="264.5" r="4" fill="rgb(255,0,0)" stroke="rgb(0,0,0)" stroke-width="1"/>
<circle cx="621.7769376181475" cy="264.468809073724" r="4" fill="rgb(255,0,0)" stroke="rgb(0,0,0)" stroke-width="1"/>
<circle cx="749.8276699029126" cy="264.5" r="4" fill="rgb(255,0,0)" stroke="rgb(0,0,0)" stroke-width="1"/>
<circle cx="963.3072164948453" cy="264.39862542955325" r="4" fill="rgb(255,0,0)" stroke="rgb(0,0,0)" stroke-width="1"/>
<circle cx="1209.3548951048951" cy="264.52534965034965" r="4" fill="rgb(255,0,0)" stroke="rgb(0,0,0)" stroke-width="1"/>
<circle cx="1323.2903225806451" cy="264.01612903225805" r="4" fill="rgb(255,0,0)" stroke="rgb(0,0,0)" stroke-width="1"/>
<circle cx="1349.5" cy="264.5" r="4" fill="rgb(255,0,0)" stroke="rgb(0,0,0)" stroke-width="1"/>
<circle cx="1367.5" cy="264.5" r="4" fill="rgb(255,0,0)" stroke="rgb(0,0,0)" stroke-width="1"/>
<circle cx="1384.8301886792453" cy="265.0188679245283" r="4" fill="rgb(255,0,0)" stroke="rgb(0,0,0)" stroke-width="1"/>
<circle cx="1401.0740740740741" cy="264.3611111111111" r="4" fill="rgb(255,0,0)" stroke="rgb(0,0,0)" stroke-width="1"/>
<circle cx="1547.9868007542427" cy="264.463230672533" r="4" fill="rgb(255,0,0)" stroke="rgb(0,0,0)" stroke-width="1"/>
<circle cx="1853.066100667071" cy="264.4420861127956" r="4" fill="rgb(255,0,0)" stroke="rgb(0,0,0)" stroke-width="1"/>
<circle cx="2037.0" cy="264.5" r="4" fill="rgb(255,0,0)" stroke="rgb(0,0,0)" stroke-width="1"/>
<circle cx="2075.054054054054" cy="265.35135135135135" r="4" fill="rgb(255,0,0)" stroke="rgb(0,0,0)" stroke-width="1"/>
<circle cx="2096.2903225806454" cy="264.01612903225805" r="4" fill="rgb(255,0,0)" stroke="rgb(0,0,0)" stroke-width="1"/>
<circle cx="2122.5" cy="264.5" r="4" fill="rgb(255,0,0)" stroke="rgb(0,0,0)" stroke-width="1"/>
<circle cx="2140.5" cy="264.5" r="4" fill="rgb(255,0,0)" stroke="rgb(0,0,0)" stroke-width="1"/>
<circle cx="2157.830188679245" cy="265.0188679245283" r="4" fill="rgb(255,0,0)" stroke="rgb(0,0,0)" stroke-width="1"/>
<circle cx="2176.3507462686566" cy="264.57462686567163" r="4" fill="rgb(255,0,0)" stroke="rgb(0,0,0)" stroke-width="1"/>
<circle cx="2344.741312741313" cy="264.4967824967825" r="4" fill="rgb(255,0,0)" stroke="rgb(0,0,0)" stroke-width="1"/>
<circle cx="706.829268292683" cy="431.4634146341463" r="4" fill="rgb(255,0,0)" stroke="rgb(0,0,0)" stroke-width="1"/>
<circle cx="1519.5675675675675" cy="431.05405405405406" r="4" fill="rgb(255,0,0)" stroke="rgb(0,0,0)" stroke-width="1"/>
<circle cx="856.504761904762" cy="432.4323809523809" r="4" fill="rgb(255,0,0)" stroke="rgb(0,0,0)" stroke-width="1"/>
<circle cx="589.3428093645485" cy="432.494983277592" r="4" fill="rgb(255,0,0)" stroke="rgb(0,0,0)" stroke-width="1"/>
<circle cx="674.7533333333333" cy="432.59" r="4" fill="rgb(255,0,0)" stroke="rgb(0,0,0)" stroke-width="1"/>
<circle cx="718.2903225806451" cy="432.01612903225805" r="4" fill="rgb(255,0,0)" stroke="rgb(0,0,0)" stroke-width="1"/>
<circle cx="744.5" cy="432.5" r="4" fill="rgb(255,0,0)" stroke="rgb(0,0,0)" stroke-width="1"/>
<circle cx="762.5" cy="432.5" r="4" fill="rgb(255,0,0)" stroke="rgb(0,0,0)" stroke-width="1"/>
<circle cx="779.8301886792453" cy="433.0188679245283" r="4" fill="rgb(255,0,0)" stroke="rgb(0,0,0)" stroke-width="1"/>
<circle cx="792.8243243243244" cy="432.4054054054054" r="4" fill="rgb(255,0,0)" stroke="rgb(0,0,0)" stroke-width="1"/>
<circle cx="975.8599167822468" cy="432.6102635228849" r="4" fill="rgb(255,0,0)" stroke="rgb(0,0,0)" stroke-width="1"/>
<circle cx="1114.8588957055215" cy="432.4907975460123" r="4" fill="rgb(255,0,0)" stroke="rgb(0,0,0)" stroke-width="1"/>
<circle cx="1236.1566265060242" cy="432.49397590361446" r="4" fill="rgb(255,0,0)" stroke="rgb(0,0,0)" stroke-width="1"/>
<circle cx="1363.5555555555557" cy="432.34640522875816" r="4" fill="rgb(255,0,0)" stroke="rgb(0,0,0)" stroke-width="1"/>
<circle cx="1470.2176470588236" cy="432.5529411764706" r="4" fill="rgb(255,0,0)" stroke="rgb(0,0,0)" stroke-width="1"/>
<circle cx="1532.3030303030303" cy="430.6060606060606" r="4" fill="rgb(255,0,0)" stroke="rgb(0,0,0)" stroke-width="1"/>
<circle cx="1575.5" cy="432.5" r="4" fill="rgb(255,0,0)" stroke="rgb(0,0,0)" stroke-width="1"/>
<circle cx="1592.8301886792453" cy="433.0188679245283" r="4" fill="rgb(255,0,0)" stroke="rgb(0,0,0)" stroke-width="1"/>
<circle cx="1611.3432835820895" cy="432.52985074626866" r="4" fill="rgb(255,0,0)" stroke="rgb(0,0,0)" stroke-width="1"/>
<circle cx="1645.2511013215858" cy="432.488986784141" r="4" fill="rgb(255,0,0)" stroke="rgb(0,0,0)" stroke-width="1"/>
<circle cx="1722.7384615384615" cy="432.4957264957265" r="4" fill="rgb(255,0,0)" stroke="rgb(0,0,0)" stroke-width="1"/>
<circle cx="1899.8063209076174" cy="432.5291734197731" r="4" fill="rgb(255,0,0)" stroke="rgb(0,0,0)" stroke-width="1"/>
<circle cx="2134.245105716523" cy="432.494909945184" r="4" fill="rgb(255,0,0)" stroke="rgb(0,0,0)" stroke-width="1"/>
<circle cx="543.1875" cy="885.78125" r="4" fill="rgb(255,0,0)" stroke="rgb(0,0,0)" stroke-width="1"/>
<circle cx="642.4347826086956" cy="886.5652173913044" r="4" fill="rgb(255,0,0)" stroke="rgb(0,0,0)" stroke-width="1"/>
<circle cx="1321.75" cy="886.90625" r="4" fill="rgb(255,0,0)" stroke="rgb(0,0,0)" stroke-width="1"/>
<circle cx="1401.3063063063064" cy="886.4054054054054" r="4" fill="rgb(255,0,0)" stroke="rgb(0,0,0)" stroke-width="1"/>
<circle cx="553.0983606557377" cy="886.0491803278688" r="4" fill="rgb(255,0,0)" stroke="rgb(0,0,0)" stroke-width="1"/>
<circle cx="579.5" cy="886.5" r="4" fill="rgb(255,0,0)" stroke="rgb(0,0,0)" stroke-width="1"/>
<circle cx="597.5" cy="886.5" r="4" fill="rgb(255,0,0)" stroke="rgb(0,0,0)" stroke-width="1"/>
<circle cx="614.8301886792453" cy="887.0188679245283" r="4" fill="rgb(255,0,0)" stroke="rgb(0,0,0)" stroke-width="1"/>
<circle cx="628.0" cy="886.5" r="4" fill="rgb(255,0,0)" stroke="rgb(0,0,0)" stroke-width="1"/>
<circle cx="680.5130890052357" cy="886.5157068062828" r="4" fill="rgb(255,0,0)" stroke="rgb(0,0,0)" stroke-width="1"/>
<circle cx="784.438028169014" cy="886.5183098591549" r="4" fill="rgb(255,0,0)" stroke="rgb(0,0,0)" stroke-width="1"/>
<circle cx="960.6463636363636" cy="886.4263636363636" r="4" fill="rgb(255,0,0)" stroke="rgb(0,0,0)" stroke-width="1"/>
<circle cx="1183.7132867132866" cy="886.5337995337995" r="4" fill="rgb(255,0,0)" stroke="rgb(0,0,0)" stroke-width="1"/>
<circle cx="1349.5" cy="886.5" r="4" fill="rgb(255,0,0)" stroke="rgb(0,0,0)" stroke-width="1"/>
<circle cx="1367.5" cy="886.5" r="4" fill="rgb(255,0,0)" stroke="rgb(0,0,0)" stroke-width="1"/>
<circle cx="1384.8301886792453" cy="887.0188679245283" r="4" fill="rgb(255,0,0)" stroke="rgb(0,0,0)" stroke-width="1"/>
<circle cx="1433.525641025641" cy="886.5299145299145" r="4" fill="rgb(255,0,0)" stroke="rgb(0,0,0)" stroke-width="1"/>
<circle cx="1496.4188861985472" cy="886.6997578692494" r="4" fill="rgb(255,0,0)" stroke="rgb(0,0,0)" stroke-width="1"/>
<circle cx="1664.4193308550186" cy="886.5048327137547" r="4" fill="rgb(255,0,0)" stroke="rgb(0,0,0)" stroke-width="1"/>
<circle cx="1912.2332317073171" cy="886.4794207317074" r="4" fill="rgb(255,0,0)" stroke="rgb(0,0,0)" stroke-width="1"/>
<circle cx="2094.5070921985816" cy="886.5070921985815" r="4" fill="rgb(255,0,0)" stroke="rgb(0,0,0)" stroke-width="1"/>
<circle cx="2195.6666666666665" cy="886.5111111111111" r="4" fill="rgb(255,0,0)" stroke="rgb(0,0,0)" stroke-width="1"/>
<circle cx="610.829268292683" cy="1053.4634146341464" r="4" fill="rgb(255,0,0)" stroke="rgb(0,0,0)" stroke-width="1"/>
<circle cx="1311.8292682926829" cy="1053.4634146341464" r="4" fill="rgb(255,0,0)" stroke="rgb(0,0,0)" stroke-width="1"/>
<circle cx="2035.8292682926829" cy="1053.4634146341464" r="4" fill="rgb(255,0,0)" stroke="rgb(0,0,0)" stroke-width="1"/>
<circle cx="2142.072727272727" cy="1054.4363636363637" r="4" fill="rgb(255,0,0)" stroke="rgb(0,0,0)" stroke-width="1"/>
<circle cx="438.67245657568236" cy="1054.5" r="4" fill="rgb(255,0,0)" stroke="rgb(0,0,0)" stroke-width="1"/>
<circle cx="561.9519038076153" cy="1054.5931863727455" r="4" fill="rgb(255,0,0)" stroke="rgb(0,0,0)" stroke-width="1"/>
<circle cx="622.2903225806451" cy="1054.016129032258" r="4" fill="rgb(255,0,0)" stroke="rgb(0,0,0)" stroke-width="1"/>
<circle cx="648.5" cy="1054.5" r="4" fill="rgb(255,0,0)" stroke="rgb(0,0,0)" stroke-width="1"/>
<circle cx="666.5" cy="1054.5" r="4" fill="rgb(255,0,0)" stroke="rgb(0,0,0)" stroke-width="1"/>
<circle cx="683.8301886792453" cy="1055.0188679245282" r="4" fill="rgb(255,0,0)" stroke="rgb(0,0,0)" stroke-width="1"/>
<circle cx="697.3164556962025" cy="1054.4177215189873" r="4" fill="rgb(255,0,0)" stroke="rgb(0,0,0)" stroke-width="1"/>
<circle cx="786.1710843373494" cy="1054.4975903614459" r="4" fill="rgb(255,0,0)" stroke="rgb(0,0,0)" stroke-width="1"/>
<circle cx="970.4463480613165" cy="1054.6167718665465" r="4" fill="rgb(255,0,0)" stroke="rgb(0,0,0)" stroke-width="1"/>
<circle cx="1150.6727272727273" cy="1054.5" r="4" fill="rgb(255,0,0)" stroke="rgb(0,0,0)" stroke-width="1"/>
<circle cx="1266.5811403508771" cy="1054.5986842105262" r="4" fill="rgb(255,0,0)" stroke="rgb(0,0,0)" stroke-width="1"/>
<circle cx="1323.2903225806451" cy="1054.016129032258" r="4" fill="rgb(255,0,0)" stroke="rgb(0,0,0)" stroke-width="1"/>
<circle cx="1349.5" cy="1054.5" r="4" fill="rgb(255,0,0)" stroke="rgb(0,0,0)" stroke-width="1"/>
<circle cx="1367.5" cy="1054.5" r="4" fill="rgb(255,0,0)" stroke="rgb(0,0,0)" stroke-width="1"/>
<circle cx="1384.8301886792453" cy="1055.0188679245282" r="4" fill="rgb(255,0,0)" stroke="rgb(0,0,0)" stroke-width="1"/>
<circle cx="1401.8468468468468" cy="1054.873873873874" r="4" fill="rgb(255,0,0)" stroke="rgb(0,0,0)" stroke-width="1"/>
<circle cx="1492.4206974128233" cy="1054.5073115860519" r="4" fill="rgb(255,0,0)" stroke="rgb(0,0,0)" stroke-width="1"/>
<circle cx="1697.2107728337237" cy="1054.5339578454332" r="4" fill="rgb(255,0,0)" stroke="rgb(0,0,0)" stroke-width="1"/>
<circle cx="1885.197080291971" cy="1054.6423357664235" r="4" fill="rgb(255,0,0)" stroke="rgb(0,0,0)" stroke-width="1"/>
<circle cx="1992.6953488372094" cy="1054.6162790697674" r="4" fill="rgb(255,0,0)" stroke="rgb(0,0,0)" stroke-width="1"/>
<circle cx="2047.2903225806451" cy="1054.016129032258" r="4" fill="rgb(255,0,0)" stroke="rgb(0,0,0)" stroke-width="1"/>
<circle cx="2073.5" cy="1054.5" r="4" fill="rgb(255,0,0)" stroke="rgb(0,0,0)" stroke-width="1"/>
<circle cx="2091.5" cy="1054.5" r="4" fill="rgb(255,0,0)" stroke="rgb(0,0,0)" stroke-width="1"/>
<circle cx="2108.830188679245" cy="1055.0188679245282" r="4" fill="rgb(255,0,0)" stroke="rgb(0,0,0)" stroke-width="1"/>
<circle cx="2125.375" cy="1054.5" r="4" fill="rgb(255,0,0)" stroke="rgb(0,0,0)" stroke-width="1"/>
<circle cx="2153.425531914894" cy="1054.4468085106382" r="4" fill="rgb(255,0,0)" stroke="rgb(0,0,0)" stroke-width="1"/>
<circle cx="2201.5080645161293" cy="1054.508064516129" r="4" fill="rgb(255,0,0)" stroke="rgb(0,0,0)" stroke-width="1"/>
<circle cx="2334.1541019955653" cy="1054.5232815964523" r="4" fill="rgb(255,0,0)" stroke="rgb(0,0,0)" stroke-width="1"/>
<circle cx="711.0" cy="1055.2702702702702" r="4" fill="rgb(255,0,0)" stroke="rgb(0,0,0)" stroke-width="1"/>
<circle cx="368.5" cy="264.5" r="4" fill="rgb(160,0,200)" stroke="rgb(0,0,0)" stroke-width="1"/>
<circle cx="834.6868131868132" cy="266.15934065934067" r="4" fill="rgb(160,0,200)" stroke="rgb(0,0,0)" stroke-width="1"/>
<circle cx="1999.8" cy="265.6258064516129" r="4" fill="rgb(160,0,200)" stroke="rgb(0,0,0)" stroke-width="1"/>
<circle cx="2412.0" cy="264.5" r="4" fill="rgb(160,0,200)" stroke="rgb(0,0,0)" stroke-width="1"/>
<circle cx="337.79545454545456" cy="271.8863636363636" r="4" fill="rgb(160,0,200)" stroke="rgb(0,0,0)" stroke-width="1"/>
<circle cx="2445.3333333333335" cy="273.2783505154639" r="4" fill="rgb(160,0,200)" stroke="rgb(0,0,0)" stroke-width="1"/>
<circle cx="1966.233870967742" cy="277.9193548387097" r="4" fill="rgb(160,0,200)" stroke="rgb(0,0,0)" stroke-width="1"/>
<circle cx="868.43" cy="279.59" r="4" fill="rgb(160,0,200)" stroke="rgb(0,0,0)" stroke-width="1"/>
<circle cx="293.13745704467357" cy="315.3676975945017" r="4" fill="rgb(160,0,200)" stroke="rgb(0,0,0)" stroke-width="1"/>
<circle cx="2488.752851711027" cy="318.09125475285174" r="4" fill="rgb(160,0,200)" stroke="rgb(0,0,0)" stroke-width="1"/>
<circle cx="284.5" cy="348.5" r="4" fill="rgb(160,0,200)" stroke="rgb(0,0,0)" stroke-width="1"/>
<circle cx="2496.0" cy="348.5" r="4" fill="rgb(160,0,200)" stroke="rgb(0,0,0)" stroke-width="1"/>
<circle cx="1013.1583333333333" cy="419.4583333333333" r="4" fill="rgb(160,0,200)" stroke="rgb(0,0,0)" stroke-width="1"/>
<circle cx="1821.2371134020618" cy="418.0927835051546" r="4" fill="rgb(160,0,200)" stroke="rgb(0,0,0)" stroke-width="1"/>
<circle cx="1787.6290322580646" cy="431.09139784946234" r="4" fill="rgb(160,0,200)" stroke="rgb(0,0,0)" stroke-width="1"/>
<circle cx="1046.7610062893082" cy="431.59119496855345" r="4" fill="rgb(160,0,200)" stroke="rgb(0,0,0)" stroke-width="1"/>
<circle cx="536.5" cy="432.5" r="4" fill="rgb(160,0,200)" stroke="rgb(0,0,0)" stroke-width="1"/>
<circle cx="1322.4624277456646" cy="439.95953757225436" r="4" fill="rgb(160,0,200)" stroke="rgb(0,0,0)" stroke-width="1"/>
<circle cx="2243.5714285714284" cy="432.57142857142856" r="4" fill="rgb(160,0,200)" stroke="rgb(0,0,0)" stroke-width="1"/>
<circle cx="505.7781954887218" cy="440.0451127819549" r="4" fill="rgb(160,0,200)" stroke="rgb(0,0,0)" stroke-width="1"/>
<circle cx="2277.4048442906574" cy="441.48096885813146" r="4" fill="rgb(160,0,200)" stroke="rgb(0,0,0)" stroke-width="1"/>
<circle cx="1530.1707317073171" cy="434.8536585365854" r="4" fill="rgb(160,0,200)" stroke="rgb(0,0,0)" stroke-width="1"/>
<circle cx="1507.689393939394" cy="444.6515151515151" r="4" fill="rgb(160,0,200)" stroke="rgb(0,0,0)" stroke-width="1"/>
<circle cx="461.12969283276453" cy="483.65870307167233" r="4" fill="rgb(160,0,200)" stroke="rgb(0,0,0)" stroke-width="1"/>
<circle cx="1473.9591836734694" cy="483.54761904761904" r="4" fill="rgb(160,0,200)" stroke="rgb(0,0,0)" stroke-width="1"/>
<circle cx="2320.4328358208954" cy="485.7723880597015" r="4" fill="rgb(160,0,200)" stroke="rgb(0,0,0)" stroke-width="1"/>
<circle cx="1370.5285171102662" cy="485.8897338403042" r="4" fill="rgb(160,0,200)" stroke="rgb(0,0,0)" stroke-width="1"/>
<circle cx="452.5" cy="516.5" r="4" fill="rgb(160,0,200)" stroke="rgb(0,0,0)" stroke-width="1"/>
<circle cx="1378.0" cy="516.5" r="4" fill="rgb(160,0,200)" stroke="rgb(0,0,0)" stroke-width="1"/>
<circle cx="1465.0967741935483" cy="516.4193548387096" r="4" fill="rgb(160,0,200)" stroke="rgb(0,0,0)" stroke-width="1"/>
<circle cx="2328.0" cy="516.5" r="4" fill="rgb(160,0,200)" stroke="rgb(0,0,0)" stroke-width="1"/>
<circle cx="452.5" cy="802.5" r="4" fill="rgb(160,0,200)" stroke="rgb(0,0,0)" stroke-width="1"/>
<circle cx="1378.0" cy="802.5" r="4" fill="rgb(160,0,200)" stroke="rgb(0,0,0)" stroke-width="1"/>
<circle cx="1465.0967741935483" cy="802.5806451612904" r="4" fill="rgb(160,0,200)" stroke="rgb(0,0,0)" stroke-width="1"/>
<circle cx="2328.0" cy="802.5" r="4" fill="rgb(160,0,200)" stroke="rgb(0,0,0)" stroke-width="1"/>
<circle cx="1472.8115384615385" cy="833.626923076923" r="4" fill="rgb(160,0,200)" stroke="rgb(0,0,0)" stroke-width="1"/>
<circle cx="2319.020689655172" cy="835.9827586206897" r="4" fill="rgb(160,0,200)" stroke="rgb(0,0,0)" stroke-width="1"/>
<circle cx="460.0267175572519" cy="833.5954198473282" r="4" fill="rgb(160,0,200)" stroke="rgb(0,0,0)" stroke-width="1"/>
<circle cx="1368.9722222222222" cy="836.1527777777778" r="4" fill="rgb(160,0,200)" stroke="rgb(0,0,0)" stroke-width="1"/>
<circle cx="503.8144329896907" cy="877.8316151202749" r="4" fill="rgb(160,0,200)" stroke="rgb(0,0,0)" stroke-width="1"/>
<circle cx="1521.0228571428572" cy="879.06" r="4" fill="rgb(160,0,200)" stroke="rgb(0,0,0)" stroke-width="1"/>
<circle cx="2274.8199233716473" cy="878.8927203065134" r="4" fill="rgb(160,0,200)" stroke="rgb(0,0,0)" stroke-width="1"/>
<circle cx="1334.2013422818793" cy="875.3087248322148" r="4" fill="rgb(160,0,200)" stroke="rgb(0,0,0)" stroke-width="1"/>
<circle cx="1310.9565217391305" cy="883.9130434782609" r="4" fill="rgb(160,0,200)" stroke="rgb(0,0,0)" stroke-width="1"/>
<circle cx="857.5962732919255" cy="887.3291925465838" r="4" fill="rgb(160,0,200)" stroke="rgb(0,0,0)" stroke-width="1"/>
<circle cx="1297.323076923077" cy="886.4923076923077" r="4" fill="rgb(160,0,200)" stroke="rgb(0,0,0)" stroke-width="1"/>
<circle cx="2031.2566844919786" cy="887.8663101604278" r="4" fill="rgb(160,0,200)" stroke="rgb(0,0,0)" stroke-width="1"/>
<circle cx="2243.5714285714284" cy="886.4285714285714" r="4" fill="rgb(160,0,200)" stroke="rgb(0,0,0)" stroke-width="1"/>
<circle cx="892.2015503875969" cy="900.015503875969" r="4" fill="rgb(160,0,200)" stroke="rgb(0,0,0)" stroke-width="1"/>
<circle cx="1997.40625" cy="901.03125" r="4" fill="rgb(160,0,200)" stroke="rgb(0,0,0)" stroke-width="1"/>
<circle cx="284.5" cy="970.5" r="4" fill="rgb(160,0,200)" stroke="rgb(0,0,0)" stroke-width="1"/>
<circle cx="2496.0" cy="970.5" r="4" fill="rgb(160,0,200)" stroke="rgb(0,0,0)" stroke-width="1"/>
<circle cx="291.94573643410854" cy="1001.7015503875969" r="4" fill="rgb(160,0,200)" stroke="rgb(0,0,0)" stroke-width="1"/>
<circle cx="2487.096551724138" cy="1004.1137931034483" r="4" fill="rgb(160,0,200)" stroke="rgb(0,0,0)" stroke-width="1"/>
<circle cx="335.65635738831617" cy="1045.914089347079" r="4" fill="rgb(160,0,200)" stroke="rgb(0,0,0)" stroke-width="1"/>
<circle cx="1036.8695652173913" cy="1040.0652173913043" r="4" fill="rgb(160,0,200)" stroke="rgb(0,0,0)" stroke-width="1"/>
<circle cx="1852.811475409836" cy="1040.9262295081967" r="4" fill="rgb(160,0,200)" stroke="rgb(0,0,0)" stroke-width="1"/>
<circle cx="2442.8560606060605" cy="1047.064393939394" r="4" fill="rgb(160,0,200)" stroke="rgb(0,0,0)" stroke-width="1"/>
<circle cx="1070.2391304347825" cy="1052.8858695652175" r="4" fill="rgb(160,0,200)" stroke="rgb(0,0,0)" stroke-width="1"/>
<circle cx="1818.5471698113208" cy="1053.377358490566" r="4" fill="rgb(160,0,200)" stroke="rgb(0,0,0)" stroke-width="1"/>
<circle cx="368.5" cy="1054.5" r="4" fill="rgb(160,0,200)" stroke="rgb(0,0,0)" stroke-width="1"/>
<circle cx="2412.0" cy="1054.5" r="4" fill="rgb(160,0,200)" stroke="rgb(0,0,0)" stroke-width="1"/>
<circle cx="2414.0344827586205" cy="265.44827586206895" r="4" fill="rgb(0,0,255)" stroke="rgb(0,0,0)" stroke-width="1"/>
<circle cx="366.6341463414634" cy="266.9024390243902" r="4" fill="rgb(0,0,255)" stroke="rgb(0,0,0)" stroke-width="1"/>
<circle cx="880.1136363636364" cy="289.1136363636364" r="4" fill="rgb(0,0,255)" stroke="rgb(0,0,0)" stroke-width="1"/>
<circle cx="1952.720430107527" cy="289.2795698924731" r="4" fill="rgb(0,0,255)" stroke="rgb(0,0,0)" stroke-width="1"/>
<circle cx="286.8157894736842" cy="346.44736842105266" r="4" fill="rgb(0,0,255)" stroke="rgb(0,0,0)" stroke-width="1"/>
<circle cx="2497.9024390243903" cy="346.6341463414634" r="4" fill="rgb(0,0,255)" stroke="rgb(0,0,0)" stroke-width="1"/>
<circle cx="999.6020408163265" cy="408.6530612244898" r="4" fill="rgb(0,0,255)" stroke="rgb(0,0,0)" stroke-width="1"/>
<circle cx="1833.2173913043478" cy="408.7391304347826" r="4" fill="rgb(0,0,255)" stroke="rgb(0,0,0)" stroke-width="1"/>
<circle cx="2246.0344827586205" cy="433.44827586206895" r="4" fill="rgb(0,0,255)" stroke="rgb(0,0,0)" stroke-width="1"/>
<circle cx="534.6341463414634" cy="434.9024390243902" r="4" fill="rgb(0,0,255)" stroke="rgb(0,0,0)" stroke-width="1"/>
<circle cx="454.9024390243902" cy="514.6341463414634" r="4" fill="rgb(0,0,255)" stroke="rgb(0,0,0)" stroke-width="1"/>
<circle cx="1379.9024390243903" cy="514.6341463414634" r="4" fill="rgb(0,0,255)" stroke="rgb(0,0,0)" stroke-width="1"/>
<circle cx="1466.3541666666667" cy="515.0208333333334" r="4" fill="rgb(0,0,255)" stroke="rgb(0,0,0)" stroke-width="1"/>
<circle cx="2329.9024390243903" cy="514.6341463414634" r="4" fill="rgb(0,0,255)" stroke="rgb(0,0,0)" stroke-width="1"/>
<circle cx="453.44827586206895" cy="805.0344827586207" r="4" fill="rgb(0,0,255)" stroke="rgb(0,0,0)" stroke-width="1"/>
<circle cx="1378.4915254237287" cy="804.9322033898305" r="4" fill="rgb(0,0,255)" stroke="rgb(0,0,0)" stroke-width="1"/>
<circle cx="1466.232142857143" cy="805.0535714285714" r="4" fill="rgb(0,0,255)" stroke="rgb(0,0,0)" stroke-width="1"/>
<circle cx="2328.491525423729" cy="804.9322033898305" r="4" fill="rgb(0,0,255)" stroke="rgb(0,0,0)" stroke-width="1"/>
<circle cx="2246.0535714285716" cy="887.1071428571429" r="4" fill="rgb(0,0,255)" stroke="rgb(0,0,0)" stroke-width="1"/>
<circle cx="906.0" cy="911.0" r="4" fill="rgb(0,0,255)" stroke="rgb(0,0,0)" stroke-width="1"/>
<circle cx="1986.6947368421052" cy="911.2736842105263" r="4" fill="rgb(0,0,255)" stroke="rgb(0,0,0)" stroke-width="1"/>
<circle cx="285.23214285714283" cy="973.0535714285714" r="4" fill="rgb(0,0,255)" stroke="rgb(0,0,0)" stroke-width="1"/>
<circle cx="2496.448275862069" cy="973.0344827586207" r="4" fill="rgb(0,0,255)" stroke="rgb(0,0,0)" stroke-width="1"/>
<circle cx="1025.6020408163265" cy="1030.6530612244899" r="4" fill="rgb(0,0,255)" stroke="rgb(0,0,0)" stroke-width="1"/>
<circle cx="1867.223404255319" cy="1030.712765957447" r="4" fill="rgb(0,0,255)" stroke="rgb(0,0,0)" stroke-width="1"/>
<circle cx="367.0208333333333" cy="1055.3541666666667" r="4" fill="rgb(0,0,255)" stroke="rgb(0,0,0)" stroke-width="1"/>
<circle cx="2414.0" cy="1055.1818181818182" r="4" fill="rgb(0,0,255)" stroke="rgb(0,0,0)" stroke-width="1"/>
<line x1="971.6157836914062" y1="194.16842651367188" x2="965.5150526163504" y2="213.21523937960427" stroke="rgb(0,0,0)" stroke-width="2"/>
<line x1="1092.7791748046875" y1="192.4545440673828" x2="1099.5071020631135" y2="211.28895392820215" stroke="rgb(0,0,0)" stroke-width="2"/>
<line x1="1124.24169921875" y1="194.26373291015625" x2="1124.0593917521828" y2="214.2629019925865" stroke="rgb(0,0,0)" stroke-width="2"/>
<line x1="1517.322265625" y1="194.0" x2="1516.8847811945107" y2="174.0047853881715" stroke="rgb(0,0,0)" stroke-width="2"/>
<line x1="1647.774169921875" y1="192.4193572998047" x2="1654.4297036936925" y2="211.27947050763555" stroke="rgb(0,0,0)" stroke-width="2"/>
<line x1="840.2008666992188" y1="193.0" x2="840.2008666992188" y2="213.0" stroke="rgb(0,0,0)" stroke-width="2"/>
<line x1="1006.878662109375" y1="193.75242614746094" x2="999.3485574638413" y2="175.22413631738453" stroke="rgb(0,0,0)" stroke-width="2"/>
<line x1="1146.294677734375" y1="193.06280517578125" x2="1145.601153908054" y2="213.05077717652023" stroke="rgb(0,0,0)" stroke-width="2"/>
<line x1="1257.76318359375" y1="193.0" x2="1257.76318359375" y2="213.0" stroke="rgb(0,0,0)" stroke-width="2"/>
<line x1="1291.20068359375" y1="192.92733764648438" x2="1311.2006288325324" y2="192.97413984414587" stroke="rgb(0,0,0)" stroke-width="2"/>
<line x1="1687.4224853515625" y1="193.0" x2="1687.4224853515625" y2="213.0" stroke="rgb(0,0,0)" stroke-width="2"/>
<line x1="1713.511474609375" y1="191.5799102783203" x2="1716.5420403469625" y2="211.34896871088512" stroke="rgb(0,0,0)" stroke-width="2"/>
<line x1="1732.0" y1="193.0" x2="1732.0" y2="213.0" stroke="rgb(0,0,0)" stroke-width="2"/>
<line x1="1751.5430908203125" y1="193.70558166503906" x2="1746.1745979330026" y2="174.43956795906183" stroke="rgb(0,0,0)" stroke-width="2"/>
<line x1="1772.0" y1="193.0" x2="1772.0" y2="213.0" stroke="rgb(0,0,0)" stroke-width="2"/>
<line x1="1791.7130126953125" y1="192.8148193359375" x2="1802.2880645527143" y2="209.7903393048004" stroke="rgb(0,0,0)" stroke-width="2"/>
<line x1="1817.1510009765625" y1="194.1875" x2="1816.6880877111341" y2="214.18214206503058" stroke="rgb(0,0,0)" stroke-width="2"/>
<line x1="1837.5999755859375" y1="196.89999389648438" x2="1844.1279206788477" y2="215.80464763211123" stroke="rgb(0,0,0)" stroke-width="2"/>
<line x1="1874.2667236328125" y1="194.3384552001953" x2="1873.8885273018918" y2="214.33487906885938" stroke="rgb(0,0,0)" stroke-width="2"/>
<line x1="1898.6175537109375" y1="191.84793090820312" x2="1903.339878213363" y2="211.28242733321483" stroke="rgb(0,0,0)" stroke-width="2"/>
<line x1="1920.91162109375" y1="193.0" x2="1920.91162109375" y2="213.0" stroke="rgb(0,0,0)" stroke-width="2"/>
<line x1="928.3009033203125" y1="193.21238708496094" x2="930.0636475944776" y2="213.13455395063843" stroke="rgb(0,0,0)" stroke-width="2"/>
<line x1="1190.5555419921875" y1="193.3076934814453" x2="1192.5657377673683" y2="213.2064148711589" stroke="rgb(0,0,0)" stroke-width="2"/>
<line x1="1479.1982421875" y1="193.19827270507812" x2="1481.0850350861274" y2="213.10907410928309" stroke="rgb(0,0,0)" stroke-width="2"/>
<line x1="1630.1982421875" y1="193.19827270507812" x2="1632.0850350861274" y2="213.10907410928309" stroke="rgb(0,0,0)" stroke-width="2"/>
<line x1="860.0" y1="196.0" x2="860.0" y2="216.0" stroke="rgb(0,0,0)" stroke-width="2"/>
<line x1="871.1375122070312" y1="194.1374969482422" x2="875.454782515539" y2="174.60902601262418" stroke="rgb(0,0,0)" stroke-width="2"/>
<line x1="890.0424194335938" y1="195.6484832763672" x2="886.1877103933385" y2="215.27349839011868" stroke="rgb(0,0,0)" stroke-width="2"/>
<line x1="910.203857421875" y1="196.0" x2="910.203857421875" y2="216.0" stroke="rgb(0,0,0)" stroke-width="2"/>
<line x1="947.0424194335938" y1="195.6484832763672" x2="943.1877103933385" y2="215.27349839011868" stroke="rgb(0,0,0)" stroke-width="2"/>
<line x1="1028.1728515625" y1="194.11111450195312" x2="1032.5841895354827" y2="174.6036775281187" stroke="rgb(0,0,0)" stroke-width="2"/>
<line x1="1048.4422607421875" y1="196.5320587158203" x2="1045.6634401116758" y2="216.33807184071352" stroke="rgb(0,0,0)" stroke-width="2"/>
<line x1="1070.8023681640625" y1="197.38922119140625" x2="1077.084950181065" y2="178.4016156762383" stroke="rgb(0,0,0)" stroke-width="2"/>
<line x1="1173.4000244140625" y1="197.56153869628906" x2="1167.249288215099" y2="216.59226238748803" stroke="rgb(0,0,0)" stroke-width="2"/>
<line x1="1209.06787109375" y1="195.63580322265625" x2="1204.8092812745533" y2="215.17715457694686" stroke="rgb(0,0,0)" stroke-width="2"/>
<line x1="1227.137451171875" y1="194.1374969482422" x2="1231.4547214803827" y2="174.60902601262418" stroke="rgb(0,0,0)" stroke-width="2"/>
<line x1="1331.478759765625" y1="197.85105895996094" x2="1337.6742042683986" y2="178.83484305318672" stroke="rgb(0,0,0)" stroke-width="2"/>
<line x1="1350.349365234375" y1="194.0" x2="1355.449082446362" y2="174.66110436561164" stroke="rgb(0,0,0)" stroke-width="2"/>
<line x1="1369.90966796875" y1="196.0" x2="1369.90966796875" y2="216.0" stroke="rgb(0,0,0)" stroke-width="2"/>
<line x1="1391.4462890625" y1="197.8709716796875" x2="1397.6705311726664" y2="178.86416210643105" stroke="rgb(0,0,0)" stroke-width="2"/>
<line x1="1416.3394775390625" y1="196.88272094726562" x2="1413.8581103104557" y2="216.7281944028624" stroke="rgb(0,0,0)" stroke-width="2"/>
<line x1="1439.004638671875" y1="199.4553985595703" x2="1438.3641803843025" y2="179.4656558603288" stroke="rgb(0,0,0)" stroke-width="2"/>
<line x1="1461.5855712890625" y1="196.59210205078125" x2="1458.2248878809564" y2="216.30772547563092" stroke="rgb(0,0,0)" stroke-width="2"/>
<line x1="1497.95751953125" y1="195.7515106201172" x2="1497.245449376199" y2="215.73883050284" stroke="rgb(0,0,0)" stroke-width="2"/>
<line x1="1598.5" y1="195.8224334716797" x2="1618.5" y2="195.8224334716797" stroke="rgb(0,0,0)" stroke-width="2"/>
<line x1="1945.3333740234375" y1="196.24166870117188" x2="1949.0508437264325" y2="215.8931424119986" stroke="rgb(0,0,0)" stroke-width="2"/>
<line x1="1553.5" y1="196.0" x2="1573.5" y2="196.0" stroke="rgb(0,0,0)" stroke-width="2"/>
<line x1="1381.85400390625" y1="664.0009155273438" x2="1401.8540025359662" y2="663.9935120584247" stroke="rgb(0,0,0)" stroke-width="2"/>
<line x1="575.8055419921875" y1="262.9166564941406" x2="577.3071892586374" y2="282.86020320697895" stroke="rgb(0,0,0)" stroke-width="2"/>
<line x1="1412.0" y1="262.93182373046875" x2="1409.639233638328" y2="282.79200455002825" stroke="rgb(0,0,0)" stroke-width="2"/>
<line x1="2186.53564453125" y1="262.0714416503906" x2="2186.2017792461415" y2="282.068654805513" stroke="rgb(0,0,0)" stroke-width="2"/>
<line x1="481.52459716796875" y1="262.3442687988281" x2="483.44578503119226" y2="282.2517808782971" stroke="rgb(0,0,0)" stroke-width="2"/>
<line x1="509.52459716796875" y1="262.3770446777344" x2="511.4225522895419" y2="282.28678516716553" stroke="rgb(0,0,0)" stroke-width="2"/>
<line x1="1317.5245361328125" y1="262.3442687988281" x2="1319.445723996036" y2="282.2517808782971" stroke="rgb(0,0,0)" stroke-width="2"/>
<line x1="1345.5245361328125" y1="262.3770446777344" x2="1347.4224912543857" y2="282.28678516716553" stroke="rgb(0,0,0)" stroke-width="2"/>
<line x1="2090.524658203125" y1="262.3442687988281" x2="2092.4458460663486" y2="282.2517808782971" stroke="rgb(0,0,0)" stroke-width="2"/>
<line x1="2118.524658203125" y1="262.3770446777344" x2="2120.422613324698" y2="282.28678516716553" stroke="rgb(0,0,0)" stroke-width="2"/>
<line x1="470.78570556640625" y1="264.5714416503906" x2="474.68154971546164" y2="284.1883322899969" stroke="rgb(0,0,0)" stroke-width="2"/>
<line x1="496.33721923828125" y1="265.0465087890625" x2="494.9632307088544" y2="284.999256858464" stroke="rgb(0,0,0)" stroke-width="2"/>
<line x1="531.3023071289062" y1="264.5" x2="531.3023071289062" y2="284.5" stroke="rgb(0,0,0)" stroke-width="2"/>
<line x1="548.280029296875" y1="263.6533203125" x2="537.99986722033" y2="246.49761374937745" stroke="rgb(0,0,0)" stroke-width="2"/>
<line x1="1306.7857666015625" y1="264.5714416503906" x2="1310.681610750618" y2="284.1883322899969" stroke="rgb(0,0,0)" stroke-width="2"/>
<line x1="1332.337158203125" y1="265.0465087890625" x2="1330.963169673698" y2="284.999256858464" stroke="rgb(0,0,0)" stroke-width="2"/>
<line x1="1367.3023681640625" y1="264.5" x2="1367.3023681640625" y2="284.5" stroke="rgb(0,0,0)" stroke-width="2"/>
<line x1="1384.280029296875" y1="263.6533203125" x2="1373.99986722033" y2="246.49761374937745" stroke="rgb(0,0,0)" stroke-width="2"/>
<line x1="2079.78564453125" y1="264.5714416503906" x2="2083.6814886803054" y2="284.1883322899969" stroke="rgb(0,0,0)" stroke-width="2"/>
<line x1="2105.337158203125" y1="265.0465087890625" x2="2103.9631696736983" y2="284.999256858464" stroke="rgb(0,0,0)" stroke-width="2"/>
<line x1="2140.30224609375" y1="264.5" x2="2140.30224609375" y2="284.5" stroke="rgb(0,0,0)" stroke-width="2"/>
<line x1="2157.280029296875" y1="263.6533203125" x2="2146.99986722033" y2="246.49761374937745" stroke="rgb(0,0,0)" stroke-width="2"/>
<line x1="441.43939208984375" y1="264.68182373046875" x2="421.49512805036915" y2="263.18973394640096" stroke="rgb(0,0,0)" stroke-width="2"/>
<line x1="673.2222290039062" y1="264.54443359375" x2="693.2210567216134" y2="264.76097439236554" stroke="rgb(0,0,0)" stroke-width="2"/>
<line x1="1095.0469970703125" y1="264.51007080078125" x2="1115.0469900096361" y2="264.52687636548274" stroke="rgb(0,0,0)" stroke-width="2"/>
<line x1="1690.6800537109375" y1="264.5714416503906" x2="1710.6799429587572" y2="264.6380004585321" stroke="rgb(0,0,0)" stroke-width="2"/>
<line x1="2065.9013671875" y1="264.6760559082031" x2="2045.909901245767" y2="264.09185602756924" stroke="rgb(0,0,0)" stroke-width="2"/>
<line x1="2272.6162109375" y1="264.52325439453125" x2="2292.615341190365" y2="264.7097728358148" stroke="rgb(0,0,0)" stroke-width="2"/>
<line x1="855.1060791015625" y1="271.8484802246094" x2="839.2399738599867" y2="259.67199861195786" stroke="rgb(0,0,0)" stroke-width="2"/>
<line x1="1980.63232421875" y1="270.1029357910156" x2="1962.3318858314422" y2="278.17101826657" stroke="rgb(0,0,0)" stroke-width="2"/>
<line x1="310.5652160644531" y1="287.7970886230469" x2="296.55054429393346" y2="302.0655494778342" stroke="rgb(0,0,0)" stroke-width="2"/>
<line x1="2472.769287109375" y1="290.6769104003906" x2="2458.9751225786213" y2="276.19516240857376" stroke="rgb(0,0,0)" stroke-width="2"/>
<line x1="936.46875" y1="345.71875" x2="921.0694657308055" y2="332.9570085829151" stroke="rgb(0,0,0)" stroke-width="2"/>
<line x1="1889.703125" y1="351.6875" x2="1878.173004065233" y2="368.0293576431705" stroke="rgb(0,0,0)" stroke-width="2"/>
<line x1="85.33333587646484" y1="363.9791564941406" x2="88.04221017854604" y2="383.794857340074" stroke="rgb(0,0,0)" stroke-width="2"/>
<line x1="103.41818237304688" y1="364.5" x2="103.41818237304688" y2="384.5" stroke="rgb(0,0,0)" stroke-width="2"/>
<line x1="122.88888549804688" y1="364.5" x2="122.88888549804688" y2="384.5" stroke="rgb(0,0,0)" stroke-width="2"/>
<line x1="142.0877227783203" y1="364.5" x2="142.0877227783203" y2="384.5" stroke="rgb(0,0,0)" stroke-width="2"/>
<line x1="807.8181762695312" y1="430.2181701660156" x2="809.6181414776189" y2="410.2993317146984" stroke="rgb(0,0,0)" stroke-width="2"/>
<line x1="1620.0108642578125" y1="429.60870361328125" x2="1623.3523149173611" y2="449.3275957598954" stroke="rgb(0,0,0)" stroke-width="2"/>
<line x1="712.5245971679688" y1="430.3442687988281" x2="714.4457850311923" y2="450.2517808782971" stroke="rgb(0,0,0)" stroke-width="2"/>
<line x1="740.5245971679688" y1="430.3770446777344" x2="742.4225522895418" y2="450.28678516716553" stroke="rgb(0,0,0)" stroke-width="2"/>
<line x1="1525.5245361328125" y1="430.3442687988281" x2="1527.445723996036" y2="450.2517808782971" stroke="rgb(0,0,0)" stroke-width="2"/>
<line x1="1552.77685546875" y1="431.5785217285156" x2="1553.6912888157358" y2="451.55760608325824" stroke="rgb(0,0,0)" stroke-width="2"/>
<line x1="1027.6060791015625" y1="427.0303039550781" x2="1008.8536103378603" y2="420.07725316665625" stroke="rgb(0,0,0)" stroke-width="2"/>
<line x1="1808.1773681640625" y1="425.6451721191406" x2="1789.6469219856979" y2="433.16996875630855" stroke="rgb(0,0,0)" stroke-width="2"/>
<line x1="701.7857055664062" y1="432.5714416503906" x2="705.6815497154616" y2="452.1883322899969" stroke="rgb(0,0,0)" stroke-width="2"/>
<line x1="727.3372192382812" y1="433.0465087890625" x2="725.9632307088544" y2="452.999256858464" stroke="rgb(0,0,0)" stroke-width="2"/>
<line x1="762.3023071289062" y1="432.5" x2="762.3023071289062" y2="452.5" stroke="rgb(0,0,0)" stroke-width="2"/>
<line x1="779.280029296875" y1="431.6533203125" x2="768.99986722033" y2="414.4976137493775" stroke="rgb(0,0,0)" stroke-width="2"/>
<line x1="1514.7857666015625" y1="432.5714416503906" x2="1518.681610750618" y2="452.1883322899969" stroke="rgb(0,0,0)" stroke-width="2"/>
<line x1="1540.1798095703125" y1="433.0561828613281" x2="1538.5743148341191" y2="452.9916383778709" stroke="rgb(0,0,0)" stroke-width="2"/>
<line x1="1575.3023681640625" y1="432.5" x2="1575.3023681640625" y2="452.5" stroke="rgb(0,0,0)" stroke-width="2"/>
<line x1="1592.280029296875" y1="431.6533203125" x2="1581.99986722033" y2="414.4976137493775" stroke="rgb(0,0,0)" stroke-width="2"/>
<line x1="643.9444580078125" y1="432.7083435058594" x2="663.9438417800061" y2="432.8653426540106" stroke="rgb(0,0,0)" stroke-width="2"/>
<line x1="906.5049438476562" y1="432.8415832519531" x2="926.5022417631818" y2="432.51283398926665" stroke="rgb(0,0,0)" stroke-width="2"/>
<line x1="1174.5" y1="432.7250061035156" x2="1194.499173866647" y2="432.5432242242718" stroke="rgb(0,0,0)" stroke-width="2"/>
<line x1="1420.7857666015625" y1="432.75" x2="1440.7829717890106" y2="432.41565782333345" stroke="rgb(0,0,0)" stroke-width="2"/>
<line x1="1668.9853515625" y1="432.76470947265625" x2="1648.992139843117" y2="433.2857518355443" stroke="rgb(0,0,0)" stroke-width="2"/>
<line x1="2010.5394287109375" y1="432.8666687011719" x2="2030.5385959797886" y2="432.68416239302303" stroke="rgb(0,0,0)" stroke-width="2"/>
<line x1="478.47760009765625" y1="455.9850769042969" x2="462.394489102115" y2="467.8734552926685" stroke="rgb(0,0,0)" stroke-width="2"/>
<line x1="1491.227294921875" y1="456.0454406738281" x2="1476.144500983468" y2="469.1797212788538" stroke="rgb(0,0,0)" stroke-width="2"/>
<line x1="1354.6768798828125" y1="458.76922607421875" x2="1340.1951318909958" y2="444.97506154346485" stroke="rgb(0,0,0)" stroke-width="2"/>
<line x1="2304.625" y1="458.78125" x2="2290.557718774409" y2="444.5646541022428" stroke="rgb(0,0,0)" stroke-width="2"/>
<line x1="85.61386108398438" y1="551.7722778320312" x2="87.58356863389027" y2="531.8695078698415" stroke="rgb(0,0,0)" stroke-width="2"/>
<line x1="103.41818237304688" y1="551.5" x2="103.41818237304688" y2="571.5" stroke="rgb(0,0,0)" stroke-width="2"/>
<line x1="122.88888549804688" y1="551.5" x2="122.88888549804688" y2="571.5" stroke="rgb(0,0,0)" stroke-width="2"/>
<line x1="142.0877227783203" y1="551.5" x2="142.0877227783203" y2="571.5" stroke="rgb(0,0,0)" stroke-width="2"/>
<line x1="2496.0" y1="661.7409057617188" x2="2496.0" y2="681.7409057617188" stroke="rgb(0,0,0)" stroke-width="2"/>
<line x1="284.5" y1="654.4166870117188" x2="284.5" y2="634.4166870117188" stroke="rgb(0,0,0)" stroke-width="2"/>
<line x1="1377.9278564453125" y1="659.2783203125" x2="1377.7219569824101" y2="679.277260419695" stroke="rgb(0,0,0)" stroke-width="2"/>
<line x1="2327.855712890625" y1="659.2164916992188" x2="2327.493050078145" y2="679.2132033209941" stroke="rgb(0,0,0)" stroke-width="2"/>
<line x1="42.037498474121094" y1="659.2249755859375" x2="22.06310705776086" y2="658.2132011318052" stroke="rgb(0,0,0)" stroke-width="2"/>
<line x1="452.73468017578125" y1="659.6224365234375" x2="452.12290905310107" y2="639.6317953107737" stroke="rgb(0,0,0)" stroke-width="2"/>
<line x1="1465.1875" y1="659.6770629882812" x2="1465.6742847440798" y2="639.6829878505578" stroke="rgb(0,0,0)" stroke-width="2"/>
<line x1="86.75789642333984" y1="738.4947509765625" x2="87.36435127411444" y2="758.4855541748827" stroke="rgb(0,0,0)" stroke-width="2"/>
<line x1="103.91227722167969" y1="738.5" x2="103.91227722167969" y2="758.5" stroke="rgb(0,0,0)" stroke-width="2"/>
<line x1="123.11111450195312" y1="738.5" x2="123.11111450195312" y2="758.5" stroke="rgb(0,0,0)" stroke-width="2"/>
<line x1="142.58181762695312" y1="738.5" x2="142.58181762695312" y2="758.5" stroke="rgb(0,0,0)" stroke-width="2"/>
<line x1="475.76190185546875" y1="860.1904907226562" x2="490.4001823555394" y2="873.8184305523316" stroke="rgb(0,0,0)" stroke-width="2"/>
<line x1="1488.54541015625" y1="860.1969604492188" x2="1504.8320433085541" y2="871.8049568552427" stroke="rgb(0,0,0)" stroke-width="2"/>
<line x1="1351.952392578125" y1="862.920654296875" x2="1367.4537274085353" y2="850.2830667709462" stroke="rgb(0,0,0)" stroke-width="2"/>
<line x1="2301.676513671875" y1="863.1029663085938" x2="2315.571616158013" y2="848.7180392354481" stroke="rgb(0,0,0)" stroke-width="2"/>
<line x1="641.4761962890625" y1="884.6571655273438" x2="640.2457890135722" y2="864.6950489577908" stroke="rgb(0,0,0)" stroke-width="2"/>
<line x1="1412.6619873046875" y1="881.3521118164062" x2="1414.5549479553433" y2="861.4418958463302" stroke="rgb(0,0,0)" stroke-width="2"/>
<line x1="547.5245971679688" y1="884.34423828125" x2="549.4457850311923" y2="904.2517503607189" stroke="rgb(0,0,0)" stroke-width="2"/>
<line x1="575.5245971679688" y1="884.3770751953125" x2="577.4225522895418" y2="904.2868156847437" stroke="rgb(0,0,0)" stroke-width="2"/>
<line x1="1317.5245361328125" y1="884.34423828125" x2="1319.445723996036" y2="904.2517503607189" stroke="rgb(0,0,0)" stroke-width="2"/>
<line x1="1345.5245361328125" y1="884.3770751953125" x2="1347.4224912543857" y2="904.2868156847437" stroke="rgb(0,0,0)" stroke-width="2"/>
<line x1="536.7777709960938" y1="886.6944580078125" x2="540.4784994131667" y2="906.3490912830244" stroke="rgb(0,0,0)" stroke-width="2"/>
<line x1="564.8057250976562" y1="886.8201293945312" x2="584.1808747116438" y2="881.8599300602707" stroke="rgb(0,0,0)" stroke-width="2"/>
<line x1="597.3023071289062" y1="886.5" x2="597.3023071289062" y2="906.5" stroke="rgb(0,0,0)" stroke-width="2"/>
<line x1="614.280029296875" y1="885.6533203125" x2="603.99986722033" y2="868.4976137493775" stroke="rgb(0,0,0)" stroke-width="2"/>
<line x1="1306.7857666015625" y1="886.5714111328125" x2="1310.681610750618" y2="906.1883017724188" stroke="rgb(0,0,0)" stroke-width="2"/>
<line x1="1331.690185546875" y1="886.7042236328125" x2="1333.8964879038429" y2="906.5821568732084" stroke="rgb(0,0,0)" stroke-width="2"/>
<line x1="1367.3023681640625" y1="886.5" x2="1367.3023681640625" y2="906.5" stroke="rgb(0,0,0)" stroke-width="2"/>
<line x1="1384.280029296875" y1="885.6533203125" x2="1373.99986722033" y2="868.4976137493775" stroke="rgb(0,0,0)" stroke-width="2"/>
<line x1="719.2352905273438" y1="886.2000122070312" x2="699.2411529556819" y2="886.6842257606" stroke="rgb(0,0,0)" stroke-width="2"/>
<line x1="1068.8961181640625" y1="886.097412109375" x2="1048.8968365790136" y2="886.266929311805" stroke="rgb(0,0,0)" stroke-width="2"/>
<line x1="1457.6666259765625" y1="886.2380981445312" x2="1477.641076688693" y2="885.2274949837025" stroke="rgb(0,0,0)" stroke-width="2"/>
<line x1="1795.305908203125" y1="886.0941162109375" x2="1775.3062841197273" y2="886.2167397110204" stroke="rgb(0,0,0)" stroke-width="2"/>
<line x1="2146.727294921875" y1="886.272705078125" x2="2166.6761556933097" y2="884.8433856869777" stroke="rgb(0,0,0)" stroke-width="2"/>
<line x1="2010.671875" y1="893.28125" x2="2028.3170307253085" y2="883.8659178534632" stroke="rgb(0,0,0)" stroke-width="2"/>
<line x1="877.1384887695312" y1="891.9384765625" x2="895.1224399070834" y2="900.689333748064" stroke="rgb(0,0,0)" stroke-width="2"/>
<line x1="85.59183502197266" y1="926.30615234375" x2="82.97643353531271" y2="946.1344068071055" stroke="rgb(0,0,0)" stroke-width="2"/>
<line x1="103.41818237304688" y1="925.5" x2="103.41818237304688" y2="945.5" stroke="rgb(0,0,0)" stroke-width="2"/>
<line x1="122.88888549804688" y1="925.5" x2="122.88888549804688" y2="945.5" stroke="rgb(0,0,0)" stroke-width="2"/>
<line x1="142.0877227783203" y1="925.5" x2="142.0877227783203" y2="945.5" stroke="rgb(0,0,0)" stroke-width="2"/>
<line x1="1929.138427734375" y1="967.2769165039062" x2="1942.4237506416325" y2="952.3269935860482" stroke="rgb(0,0,0)" stroke-width="2"/>
<line x1="968.21875" y1="973.375" x2="982.4353458977572" y2="987.4422812255913" stroke="rgb(0,0,0)" stroke-width="2"/>
<line x1="307.71875" y1="1028.34375" x2="322.2565562266102" y2="1042.0788215366733" stroke="rgb(0,0,0)" stroke-width="2"/>
<line x1="2470.015625" y1="1031.0625" x2="2483.8369088551435" y2="1016.6066322434261" stroke="rgb(0,0,0)" stroke-width="2"/>
<line x1="711.0" y1="1051.9569091796875" x2="711.0" y2="1071.9569091796875" stroke="rgb(0,0,0)" stroke-width="2"/>
<line x1="1412.5189208984375" y1="1051.32080078125" x2="1410.2192932109092" y2="1031.4534478499017" stroke="rgb(0,0,0)" stroke-width="2"/>
<line x1="2135.8056640625" y1="1052.9166259765625" x2="2137.3073113289497" y2="1072.8601726894008" stroke="rgb(0,0,0)" stroke-width="2"/>
<line x1="2153.20556640625" y1="1052.028076171875" x2="2153.18984957835" y2="1072.028069996407" stroke="rgb(0,0,0)" stroke-width="2"/>
<line x1="616.5245971679688" y1="1052.34423828125" x2="618.4457850311923" y2="1072.251750360719" stroke="rgb(0,0,0)" stroke-width="2"/>
<line x1="644.5245971679688" y1="1052.3770751953125" x2="646.4225522895418" y2="1072.2868156847437" stroke="rgb(0,0,0)" stroke-width="2"/>
<line x1="1317.5245361328125" y1="1052.34423828125" x2="1319.445723996036" y2="1072.251750360719" stroke="rgb(0,0,0)" stroke-width="2"/>
<line x1="1345.5245361328125" y1="1052.3770751953125" x2="1347.4224912543857" y2="1072.2868156847437" stroke="rgb(0,0,0)" stroke-width="2"/>
<line x1="2041.5245361328125" y1="1052.34423828125" x2="2043.445723996036" y2="1072.251750360719" stroke="rgb(0,0,0)" stroke-width="2"/>
<line x1="2069.524658203125" y1="1052.3770751953125" x2="2071.422613324698" y2="1072.2868156847437" stroke="rgb(0,0,0)" stroke-width="2"/>
<line x1="1049.44775390625" y1="1047.0" x2="1068.0902014360743" y2="1054.2428689134726" stroke="rgb(0,0,0)" stroke-width="2"/>
<line x1="1838.1044921875" y1="1048.8209228515625" x2="1855.7956416675424" y2="1039.492298618869" stroke="rgb(0,0,0)" stroke-width="2"/>
<line x1="605.7857055664062" y1="1054.5714111328125" x2="609.6815497154616" y2="1074.1883017724188" stroke="rgb(0,0,0)" stroke-width="2"/>
<line x1="631.3372192382812" y1="1055.0465087890625" x2="629.9632307088544" y2="1074.999256858464" stroke="rgb(0,0,0)" stroke-width="2"/>
<line x1="666.3023071289062" y1="1054.5" x2="666.3023071289062" y2="1074.5" stroke="rgb(0,0,0)" stroke-width="2"/>
<line x1="683.280029296875" y1="1053.6533203125" x2="672.99986722033" y2="1036.4976137493775" stroke="rgb(0,0,0)" stroke-width="2"/>
<line x1="1306.7857666015625" y1="1054.5714111328125" x2="1310.681610750618" y2="1074.1883017724188" stroke="rgb(0,0,0)" stroke-width="2"/>
<line x1="1332.337158203125" y1="1055.0465087890625" x2="1330.963169673698" y2="1074.999256858464" stroke="rgb(0,0,0)" stroke-width="2"/>
<line x1="1367.3023681640625" y1="1054.5" x2="1367.3023681640625" y2="1074.5" stroke="rgb(0,0,0)" stroke-width="2"/>
<line x1="1384.280029296875" y1="1053.6533203125" x2="1373.99986722033" y2="1036.4976137493775" stroke="rgb(0,0,0)" stroke-width="2"/>
<line x1="2030.7857666015625" y1="1054.5714111328125" x2="2034.681610750618" y2="1074.1883017724188" stroke="rgb(0,0,0)" stroke-width="2"/>
<line x1="2056.337158203125" y1="1055.0465087890625" x2="2054.9631696736983" y2="1074.999256858464" stroke="rgb(0,0,0)" stroke-width="2"/>
<line x1="2091.30224609375" y1="1054.5" x2="2091.30224609375" y2="1074.5" stroke="rgb(0,0,0)" stroke-width="2"/>
<line x1="2108.280029296875" y1="1053.6533203125" x2="2097.99986722033" y2="1036.4976137493775" stroke="rgb(0,0,0)" stroke-width="2"/>
<line x1="513.3222045898438" y1="1054.36669921875" x2="493.3240479965992" y2="1054.09516124338" stroke="rgb(0,0,0)" stroke-width="2"/>
<line x1="868.4672241210938" y1="1054.483642578125" x2="848.4672282238664" y2="1054.470832000905" stroke="rgb(0,0,0)" stroke-width="2"/>
<line x1="1221.755859375" y1="1054.3604736328125" x2="1201.7580168887175" y2="1054.0667120052392" stroke="rgb(0,0,0)" stroke-width="2"/>
<line x1="1580.64794921875" y1="1054.4000244140625" x2="1560.6483003725182" y2="1054.2815084766632" stroke="rgb(0,0,0)" stroke-width="2"/>
<line x1="1950.02294921875" y1="1054.310302734375" x2="1930.0242575939264" y2="1054.0815380185436" stroke="rgb(0,0,0)" stroke-width="2"/>
<line x1="2251.239501953125" y1="1054.375" x2="2231.2409225048236" y2="1054.1366304340377" stroke="rgb(0,0,0)" stroke-width="2"/>
<line x1="189.16806030273438" y1="1127.56298828125" x2="189.56000450567106" y2="1147.5591474059866" stroke="rgb(0,0,0)" stroke-width="2"/>
<line x1="534.5918579101562" y1="1128.30615234375" x2="531.9764564234963" y2="1148.1344068071055" stroke="rgb(0,0,0)" stroke-width="2"/>
<line x1="552.4181518554688" y1="1127.5" x2="552.4181518554688" y2="1147.5" stroke="rgb(0,0,0)" stroke-width="2"/>
<line x1="571.888916015625" y1="1127.5" x2="571.888916015625" y2="1147.5" stroke="rgb(0,0,0)" stroke-width="2"/>
<line x1="591.0877075195312" y1="1127.5" x2="591.0877075195312" y2="1147.5" stroke="rgb(0,0,0)" stroke-width="2"/>
<line x1="908.6138916015625" y1="1127.772216796875" x2="910.5835991514684" y2="1107.8694468346853" stroke="rgb(0,0,0)" stroke-width="2"/>
<line x1="926.4181518554688" y1="1127.5" x2="926.4181518554688" y2="1147.5" stroke="rgb(0,0,0)" stroke-width="2"/>
<line x1="945.888916015625" y1="1127.5" x2="945.888916015625" y2="1147.5" stroke="rgb(0,0,0)" stroke-width="2"/>
<line x1="965.0877075195312" y1="1127.5" x2="965.0877075195312" y2="1147.5" stroke="rgb(0,0,0)" stroke-width="2"/>
<line x1="1280.8492431640625" y1="1127.873046875" x2="1278.8477199406477" y2="1107.9734512814678" stroke="rgb(0,0,0)" stroke-width="2"/>
<line x1="1299.418212890625" y1="1127.5" x2="1299.418212890625" y2="1147.5" stroke="rgb(0,0,0)" stroke-width="2"/>
<line x1="1318.888916015625" y1="1127.5" x2="1318.888916015625" y2="1147.5" stroke="rgb(0,0,0)" stroke-width="2"/>
<line x1="1338.0877685546875" y1="1127.5" x2="1338.0877685546875" y2="1147.5" stroke="rgb(0,0,0)" stroke-width="2"/>
<line x1="1655.28466796875" y1="1127.29931640625" x2="1655.5348832624575" y2="1147.2977511526694" stroke="rgb(0,0,0)" stroke-width="2"/>
<line x1="1673.9122314453125" y1="1127.5" x2="1673.9122314453125" y2="1147.5" stroke="rgb(0,0,0)" stroke-width="2"/>
<line x1="1693.111083984375" y1="1127.5" x2="1693.111083984375" y2="1147.5" stroke="rgb(0,0,0)" stroke-width="2"/>
<line x1="1712.581787109375" y1="1127.5" x2="1712.581787109375" y2="1147.5" stroke="rgb(0,0,0)" stroke-width="2"/>
<line x1="2019.012939453125" y1="1128.7662353515625" x2="2020.9152674543716" y2="1148.6755584986631" stroke="rgb(0,0,0)" stroke-width="2"/>
<line x1="2037.418212890625" y1="1127.5" x2="2037.418212890625" y2="1147.5" stroke="rgb(0,0,0)" stroke-width="2"/>
<line x1="2056.888916015625" y1="1127.5" x2="2056.888916015625" y2="1147.5" stroke="rgb(0,0,0)" stroke-width="2"/>
<line x1="2076.087646484375" y1="1127.5" x2="2076.087646484375" y2="1147.5" stroke="rgb(0,0,0)" stroke-width="2"/>
<line x1="2095.912353515625" y1="1127.5" x2="2095.912353515625" y2="1147.5" stroke="rgb(0,0,0)" stroke-width="2"/>
<line x1="2392.012939453125" y1="1128.7662353515625" x2="2393.9152674543716" y2="1148.6755584986631" stroke="rgb(0,0,0)" stroke-width="2"/>
<line x1="2410.541748046875" y1="1128.40625" x2="2407.912876622518" y2="1148.232723086109" stroke="rgb(0,0,0)" stroke-width="2"/>
<line x1="2429.888916015625" y1="1127.5" x2="2429.888916015625" y2="1147.5" stroke="rgb(0,0,0)" stroke-width="2"/>
<line x1="2449.087646484375" y1="1127.5" x2="2449.087646484375" y2="1147.5" stroke="rgb(0,0,0)" stroke-width="2"/>
<line x1="2468.912353515625" y1="1127.5" x2="2468.912353515625" y2="1147.5" stroke="rgb(0,0,0)" stroke-width="2"/>
<line x1="1391.1842041015625" y1="1168.394775390625" x2="1389.8595317590061" y2="1188.350858252371" stroke="rgb(0,0,0)" stroke-width="2"/>
</svg>